<svg width="550" height="415" viewBox="0 0 550 415" fill="none" xmlns="http://www.w3.org/2000/svg">
<g id="Frame 4" filter="url(#filter0_dd_7_161)">
<rect width="542" height="407" transform="translate(4)" />
<g id="Vector" filter="url(#filter1_d_7_161)">
<path d="M128.879 277.807C128.546 277.822 128.216 277.737 127.935 277.564C127.653 277.391 127.433 277.138 127.304 276.839C127.176 276.541 127.145 276.211 127.215 275.895C127.286 275.578 127.456 275.291 127.701 275.071C127.742 274.913 127.771 274.799 127.812 274.641C127.797 274.607 127.783 274.572 127.768 274.538C127.432 273.768 126.87 273.112 126.151 272.652C125.433 272.192 124.59 271.948 123.73 271.951C122.869 271.954 122.028 272.204 121.313 272.67C120.598 273.135 120.041 273.795 119.711 274.567C118.393 277.647 116.716 280.733 116.303 283.99C116.121 285.43 116.198 286.889 116.53 288.304C113.435 281.751 111.828 274.628 111.817 267.42C111.817 265.611 111.92 263.803 112.127 262.005C112.299 260.532 112.536 259.068 112.84 257.616C114.499 249.733 118.061 242.345 123.232 236.058C125.735 234.732 127.76 232.693 129.033 230.217C129.494 229.326 129.819 228.376 130 227.395C129.718 227.431 129.431 227.453 129.148 227.471C129.06 227.476 128.968 227.48 128.88 227.485L128.847 227.486C128.536 227.5 128.229 227.426 127.96 227.274C127.692 227.121 127.475 226.897 127.335 226.628C127.196 226.358 127.139 226.056 127.172 225.756C127.206 225.456 127.327 225.172 127.523 224.938C127.645 224.792 127.767 224.647 127.889 224.501C128.074 224.277 128.264 224.056 128.449 223.832C128.471 223.81 128.491 223.788 128.509 223.764C128.722 223.508 128.935 223.257 129.148 223.001C128.76 222.415 128.237 221.924 127.621 221.567C125.487 220.354 122.543 221.194 121.001 223.068C119.455 224.942 119.163 227.57 119.7 229.911C120.228 231.903 121.102 233.793 122.283 235.5C122.168 235.644 122.047 235.783 121.932 235.927C119.816 238.568 117.972 241.403 116.427 244.392C116.802 241.043 116.354 237.655 115.118 234.507C113.865 231.574 111.516 229.103 109.448 226.567C106.964 223.52 101.87 224.85 101.433 228.711C101.429 228.749 101.424 228.786 101.42 228.824C101.728 228.992 102.028 229.17 102.322 229.359C102.692 229.599 102.978 229.941 103.144 230.342C103.31 230.742 103.347 231.182 103.251 231.603C103.155 232.024 102.93 232.407 102.605 232.702C102.281 232.997 101.872 233.19 101.433 233.256L101.388 233.263C101.497 234.337 101.691 235.402 101.967 236.448C102.766 239.369 104.178 242.098 106.114 244.463C108.051 246.829 110.47 248.782 113.22 250.197C113.4 250.287 113.576 250.377 113.757 250.463C112.204 254.734 111.23 259.184 110.859 263.699C110.649 266.363 110.661 269.039 110.896 271.702L110.882 271.607C110.29 268.647 108.663 265.976 106.276 264.045C102.732 261.219 97.724 260.178 93.9001 257.907C93.4937 257.653 93.0212 257.518 92.5383 257.517C92.0553 257.516 91.5821 257.649 91.1745 257.9C90.7668 258.152 90.4417 258.511 90.2375 258.936C90.0333 259.36 89.9585 259.833 90.0219 260.298C90.0271 260.331 90.0323 260.364 90.0376 260.397C90.6076 260.622 91.1626 260.882 91.6994 261.174C92.0066 261.342 92.3072 261.521 92.6014 261.71C92.971 261.949 93.2574 262.292 93.4231 262.692C93.5887 263.093 93.6259 263.532 93.5297 263.953C93.4336 264.375 93.2086 264.758 92.8843 265.053C92.5599 265.348 92.1513 265.541 91.712 265.607L91.667 265.613C91.6346 265.618 91.6068 265.622 91.5744 265.627C92.5484 267.884 93.9154 269.962 95.6156 271.769C97.7158 273.956 100.254 275.704 103.075 276.906C105.896 278.107 108.94 278.737 112.021 278.756H112.025C112.862 282.283 114.073 285.716 115.641 289H128.556C128.602 288.861 128.644 288.717 128.685 288.578C127.49 288.651 126.29 288.581 125.112 288.371C126.07 287.23 127.028 286.079 127.986 284.938C128.008 284.917 128.028 284.894 128.047 284.871C128.533 284.287 129.023 283.707 129.509 283.123L129.51 283.122C129.535 281.332 129.324 279.546 128.88 277.808L128.879 277.807Z" fill="#F2F2F2"/>
</g>
<g id="right-hand" filter="url(#filter2_d_7_161)">
<path id="Vector_2" d="M184.393 222.407C183.663 222.234 182.903 222.222 182.167 222.371C181.431 222.52 180.738 222.827 180.135 223.27C179.532 223.714 179.034 224.282 178.678 224.937C178.321 225.591 178.113 226.314 178.069 227.056L166.982 230.876L167.684 238.111L183.264 232.5C184.529 232.49 185.746 232.021 186.684 231.183C187.623 230.344 188.218 229.194 188.357 227.95C188.497 226.706 188.17 225.455 187.439 224.433C186.709 223.412 185.625 222.691 184.393 222.407V222.407Z" fill="#FFB6B6"/>
<path id="Vector_3" d="M166.324 243.437C161.915 246.479 154.149 248.035 143.578 247.963C142.993 247.965 142.414 247.846 141.877 247.615C141.341 247.383 140.859 247.044 140.462 246.618C137.634 243.703 137.744 237.048 137.762 236.405L134.662 224.841C134.595 224.664 132.879 219.919 134.625 216.605C134.996 215.913 135.515 215.309 136.145 214.834C136.774 214.359 137.5 214.024 138.273 213.853C144.829 212.131 150.992 229.502 151.775 231.798L160.976 230.247L167.33 229.988L173.794 226.456L177.434 235.078L168.427 241.594C167.805 242.292 167.099 242.911 166.324 243.437V243.437Z" fill="#2F2E41"/>
</g>
<g id="Vector_4" filter="url(#filter3_d_7_161)">
<path d="M254.525 283L257 276.965L233.747 265L222 272.034L254.525 283Z" fill="#FFB6B6"/>
</g>
<g id="Vector_5" filter="url(#filter4_d_7_161)">
<path d="M251 284.188L254.406 274.47L258.813 276.06L269.39 269.467C269.912 269.142 270.533 268.979 271.163 269.002C271.793 269.026 272.398 269.234 272.89 269.598C273.383 269.961 273.736 270.46 273.899 271.022C274.062 271.584 274.027 272.18 273.797 272.722L269.012 284.028L263.827 284.404L267.865 286.737L266.06 291L251 284.188Z" fill="#2F2E41"/>
</g>
<g id="Vector_6" filter="url(#filter5_d_7_161)">
<path d="M121 265.138C121 265.138 123.822 283.448 137.162 284.804C150.502 286.159 162.799 280.051 162.799 280.051L200.15 268.36C200.15 268.36 239.88 279.832 246.55 281.64C246.55 281.64 251.15 271.027 250.996 270.342C249.578 264.034 247.73 268.301 247.73 268.301L205.486 249.32C205.486 249.32 198.816 247.513 187.255 252.484C175.694 257.455 144.721 269.438 144.721 269.438L121 265.138Z" fill="#2F2E41"/>
</g>
<g id="right-leg" filter="url(#filter6_d_7_161)">
<path id="Vector_7" d="M200.881 341.183L207.358 339.183L202.648 313.503L193.089 316.455L200.881 341.183Z" fill="#FFB6B6"/>
<path id="Vector_8" d="M198.742 339.261L208.79 335.495L210.158 339.837L221.989 343.486C222.574 343.667 223.085 344.027 223.447 344.515C223.81 345.003 224.006 345.593 224.006 346.199C224.006 346.804 223.811 347.394 223.448 347.882C223.085 348.37 222.575 348.731 221.99 348.911L209.801 352.675L206.346 349.028L206.879 353.576L202.283 354.995L198.742 339.261Z" fill="#2F2E41"/>
<path id="Vector_9" d="M121.708 263.675C121.708 263.675 119.489 284.983 132.45 288.238C144.77 291.332 161.765 288.158 161.765 288.158L182.025 286.064C182.025 286.064 194.031 311.832 194.031 324.563C198.148 325.116 200.648 324.532 204.802 324.563C204.802 320.751 204.802 320.751 204.802 320.751V304.069L197.994 280.447C198.114 278.51 197.824 276.571 197.142 274.752C196.459 272.934 195.4 271.277 194.031 269.888C192.663 268.499 191.016 267.409 189.197 266.688C187.377 265.968 185.425 265.632 183.467 265.703C182.51 265.739 181.507 265.806 180.457 265.904C167.993 267.087 152.52 264.572 152.52 264.572L121.708 263.675Z" fill="#2F2E41"/>
</g>
<g id="Vector_10" filter="url(#filter7_d_7_161)">
<path d="M157.278 234C157.278 234 162.15 264.173 158.858 266.582C155.565 268.991 151.05 269 151.05 269L150 252.34L157.278 234Z" fill="#2F2E41"/>
</g>
<g id="Vector_11" filter="url(#filter8_d_7_161)">
<path d="M149 194L155.781 200.728C158.933 203.855 161.022 207.97 161.732 212.449C162.442 216.927 161.733 221.526 159.714 225.546L156.472 232L149 194Z" fill="#2F2E41"/>
</g>
<g id="Vector_12" filter="url(#filter9_d_7_161)">
<path d="M146.993 196L156.302 206.797C158.345 209.167 159.611 212.127 159.924 215.264V215.264C160.066 216.688 160.009 218.126 159.754 219.534L156.246 238.955L153.609 267C153.609 267 133.252 273.281 131.169 263.582C129.085 253.883 146.993 196 146.993 196Z" fill="#2BA8FD" fill-opacity="0.79" shape-rendering="crispEdges"/>
</g>
<g id="Vector_13" filter="url(#filter10_d_7_161)">
<path d="M138.245 268.754C124.725 266.507 121.413 266.061 121.207 265.982L121 265.904L122.355 257.795L128.078 243.775C128.449 239.188 130.86 232.974 129.481 227.983C125.472 213.473 131.985 192.968 134.963 191.397L143.22 186L146.118 188.65L151.144 195.664C155.278 214.029 158.134 231.146 157.995 232.192L155.443 250.171L152.436 257.067C143.314 261.456 149.448 270.615 138.245 268.754Z" fill="#2F2E41"/>
</g>
<g id="Vector_14" filter="url(#filter11_d_7_161)">
<path d="M162.703 255.377L184.748 249.244L186.689 248.765L188.073 248.423L189.686 248.027L189.698 248.024C189.933 247.968 190.179 248.011 190.383 248.142L198.568 258.347C198.642 258.394 198.708 258.455 198.761 258.527C198.783 258.545 198.803 258.567 198.819 258.59C198.91 258.719 198.969 258.868 198.99 259.026C199.012 259.184 198.997 259.345 198.944 259.494C198.892 259.644 198.806 259.779 198.692 259.885C198.578 259.992 198.441 260.068 198.293 260.107L165.407 267.976C165.237 268.016 165.059 268.006 164.894 267.945C164.729 267.885 164.584 267.777 164.476 267.634L164.142 267.185L162.322 258.073L162.193 256.889C162.11 256.78 162.052 256.653 162.022 256.517C161.969 256.272 162.011 256.015 162.139 255.802C162.266 255.589 162.469 255.436 162.703 255.377V255.377Z" fill="#E6E6E6"/>
</g>
<g id="Vector_15" opacity="0.17" filter="url(#filter12_d_7_161)">
<path d="M165 267.224L165.327 267.653C165.433 267.788 165.574 267.89 165.734 267.948C165.894 268.005 166.067 268.016 166.233 267.978L198.31 260.501C198.455 260.464 198.589 260.392 198.7 260.29C198.811 260.189 198.895 260.062 198.946 259.919C198.997 259.777 199.012 259.624 198.991 259.474C198.969 259.325 198.912 259.183 198.823 259.061C198.808 259.038 198.789 259.017 198.767 259L165 267.224Z" fill="black"/>
</g>
<g id="Vector_16" filter="url(#filter13_d_7_161)">
<path d="M189.602 249.283L189.005 209.021C188.98 208.779 189.056 208.537 189.218 208.349L193.447 199.926L193.886 199.415C194.049 199.229 194.283 199.111 194.536 199.087L195.457 199.004C195.71 198.981 195.963 199.054 196.16 199.209C196.357 199.363 196.482 199.587 196.507 199.829V199.829L197.336 242.429L197.336 242.433L197.747 246.534L198.234 251.405L198.235 251.411L198.995 258.989C199.009 259.119 198.994 259.25 198.95 259.373C198.906 259.497 198.835 259.609 198.741 259.704C198.649 259.799 198.537 259.875 198.413 259.926C198.288 259.977 198.154 260.002 198.018 260L197.419 259.988C197.19 259.983 196.969 259.899 196.797 259.754L196.462 259.466L196.307 259.33L189.919 249.881C189.738 249.728 189.624 249.514 189.602 249.283V249.283Z" fill="#E6E6E6"/>
</g>
<g id="Vector_17" opacity="0.17" filter="url(#filter14_d_7_161)">
<path d="M193 199.928L196.089 259.333L196.258 259.466L196.619 259.753C196.805 259.9 197.043 259.983 197.292 259.988L197.94 260C198.087 260.002 198.232 259.977 198.367 259.926C198.502 259.875 198.623 259.799 198.723 259.704C198.822 259.609 198.898 259.496 198.945 259.373C198.992 259.25 199.009 259.119 198.995 258.99L196.304 199.832C196.278 199.589 196.144 199.366 195.931 199.21C195.719 199.055 195.445 198.981 195.171 199.004L194.174 199.089C194.039 199.1 193.907 199.135 193.787 199.191C193.667 199.248 193.561 199.325 193.475 199.418L193 199.928Z" fill="black"/>
</g>
<g id="Vector_18" filter="url(#filter15_d_7_161)">
<path d="M193.316 201L190 210.296L190.41 238.104L194 244L193.316 201Z" fill="#2BA8FD" fill-opacity="0.79" shape-rendering="crispEdges"/>
</g>
<g id="Vector_19" filter="url(#filter16_d_7_161)">
<path d="M165.723 255.031C165.469 255.09 165.254 255.229 165.126 255.418C164.997 255.607 164.966 255.829 165.038 256.037L167.083 263L169 262.554L166.955 255.591C166.882 255.383 166.712 255.208 166.481 255.103C166.25 254.998 165.978 254.972 165.723 255.031V255.031Z" fill="#2F2E41"/>
</g>
<g id="Vector_20" filter="url(#filter17_d_7_161)">
<path d="M169.303 255.027C169.196 255.079 169.106 255.2 169.053 255.365C168.999 255.53 168.986 255.724 169.016 255.906L169.198 257L170 256.611L169.817 255.516C169.787 255.335 169.716 255.182 169.619 255.09C169.523 254.998 169.409 254.976 169.303 255.027Z" fill="#2F2E41"/>
</g>
<g id="Vector_21" filter="url(#filter18_d_7_161)">
<path d="M171.605 254.014C171.393 254.039 171.213 254.1 171.105 254.183C170.998 254.265 170.971 254.362 171.032 254.453L171.397 255L173 254.805L172.635 254.258C172.574 254.167 172.432 254.091 172.239 254.045C172.046 253.999 171.818 253.988 171.605 254.014V254.014Z" fill="#2F2E41"/>
</g>
<g id="Vector_22" filter="url(#filter19_d_7_161)">
<path d="M175.303 253.027C175.196 253.079 175.106 253.2 175.053 253.365C174.999 253.53 174.986 253.724 175.016 253.906L175.198 255L176 254.611L175.817 253.516C175.787 253.335 175.716 253.182 175.619 253.09C175.523 252.998 175.409 252.976 175.303 253.027V253.027Z" fill="#2F2E41"/>
</g>
<g id="Vector_23" filter="url(#filter20_d_7_161)">
<path d="M177.908 252.041C177.589 252.118 177.319 252.301 177.158 252.548C176.997 252.795 176.957 253.087 177.048 253.359L177.595 255L180 254.416L179.452 252.774C179.361 252.502 179.148 252.272 178.858 252.135C178.568 251.997 178.226 251.963 177.908 252.041V252.041Z" fill="#2F2E41"/>
</g>
<g id="Vector_24" filter="url(#filter21_d_7_161)">
<path d="M180.908 251.027C180.589 251.079 180.319 251.2 180.158 251.365C179.997 251.53 179.957 251.724 180.048 251.906L180.595 253L183 252.611L182.452 251.516C182.361 251.335 182.148 251.182 181.858 251.09C181.568 250.998 181.226 250.976 180.908 251.027Z" fill="#2F2E41"/>
</g>
<g id="Vector_25" filter="url(#filter22_d_7_161)">
<path d="M184.303 250.041C184.196 250.118 184.106 250.301 184.053 250.548C183.999 250.795 183.986 251.087 184.016 251.359L184.198 253L185 252.416L184.817 250.774C184.787 250.502 184.716 250.272 184.619 250.135C184.523 249.997 184.409 249.963 184.303 250.041V250.041Z" fill="#2F2E41"/>
</g>
<g id="Vector_26" filter="url(#filter23_d_7_161)">
<path d="M187.605 249.041C187.393 249.118 187.213 249.301 187.105 249.548C186.998 249.795 186.971 250.087 187.032 250.359L187.397 252L189 251.416L188.635 249.774C188.574 249.502 188.432 249.272 188.239 249.135C188.046 248.997 187.818 248.963 187.605 249.041V249.041Z" fill="#2F2E41"/>
</g>
<g id="Vector_27" filter="url(#filter24_d_7_161)">
<path d="M169.303 257.041C169.196 257.118 169.106 257.301 169.053 257.548C168.999 257.795 168.986 258.087 169.016 258.359L169.198 260L170 259.416L169.817 257.774C169.787 257.502 169.716 257.272 169.619 257.135C169.523 256.997 169.409 256.963 169.303 257.041V257.041Z" fill="#2F2E41"/>
</g>
<g id="Vector_28" filter="url(#filter25_d_7_161)">
<path d="M172.605 256.041C172.393 256.118 172.213 256.301 172.105 256.548C171.998 256.795 171.971 257.087 172.032 257.359L172.397 259L174 258.416L173.635 256.774C173.574 256.502 173.432 256.272 173.239 256.135C173.046 255.997 172.818 255.963 172.605 256.041Z" fill="#2F2E41"/>
</g>
<g id="Vector_29" filter="url(#filter26_d_7_161)">
<path d="M175.605 255.027C175.393 255.079 175.213 255.2 175.105 255.365C174.998 255.53 174.971 255.724 175.032 255.906L175.397 257L177 256.611L176.635 255.516C176.574 255.335 176.432 255.182 176.239 255.09C176.046 254.998 175.818 254.976 175.605 255.027Z" fill="#2F2E41"/>
</g>
<g id="Vector_30" filter="url(#filter27_d_7_161)">
<path d="M179.303 255.027C179.196 255.079 179.106 255.2 179.053 255.365C178.999 255.53 178.986 255.724 179.016 255.906L179.198 257L180 256.611L179.817 255.516C179.787 255.335 179.716 255.182 179.619 255.09C179.523 254.998 179.409 254.976 179.303 255.027Z" fill="#2F2E41"/>
</g>
<g id="Vector_31" filter="url(#filter28_d_7_161)">
<path d="M181.605 254.027C181.393 254.079 181.213 254.2 181.105 254.365C180.998 254.53 180.971 254.724 181.032 254.906L181.397 256L183 255.611L182.635 254.516C182.574 254.335 182.432 254.182 182.239 254.09C182.046 253.998 181.818 253.976 181.605 254.027V254.027Z" fill="#2F2E41"/>
</g>
<g id="Vector_32" filter="url(#filter29_d_7_161)">
<path d="M185.303 253.027C185.196 253.079 185.106 253.2 185.053 253.365C184.999 253.53 184.986 253.724 185.016 253.906L185.198 255L186 254.611L185.817 253.516C185.787 253.335 185.716 253.182 185.619 253.09C185.523 252.998 185.409 252.976 185.303 253.027V253.027Z" fill="#2F2E41"/>
</g>
<g id="Vector_33" filter="url(#filter30_d_7_161)">
<path d="M187.605 252.041C187.393 252.118 187.213 252.301 187.105 252.548C186.998 252.795 186.971 253.087 187.032 253.359L187.397 255L189 254.416L188.635 252.774C188.574 252.502 188.432 252.272 188.239 252.135C188.046 251.997 187.818 251.963 187.605 252.041Z" fill="#2F2E41"/>
</g>
<g id="Vector_34" filter="url(#filter31_d_7_161)">
<path d="M170.303 260.027C170.196 260.079 170.106 260.2 170.053 260.365C169.999 260.53 169.986 260.724 170.016 260.906L170.198 262L171 261.611L170.817 260.516C170.787 260.335 170.716 260.182 170.619 260.09C170.523 259.998 170.409 259.976 170.303 260.027V260.027Z" fill="#2F2E41"/>
</g>
<g id="Vector_35" filter="url(#filter32_d_7_161)">
<path d="M173.605 260.027C173.393 260.079 173.213 260.2 173.105 260.365C172.998 260.53 172.971 260.724 173.032 260.906L173.397 262L175 261.611L174.635 260.516C174.574 260.335 174.432 260.182 174.239 260.09C174.046 259.998 173.818 259.976 173.605 260.027V260.027Z" fill="#2F2E41"/>
</g>
<g id="Vector_36" filter="url(#filter33_d_7_161)">
<path d="M175.908 258.041C175.589 258.118 175.319 258.301 175.158 258.548C174.997 258.795 174.957 259.087 175.048 259.359L175.595 261L178 260.416L177.452 258.774C177.361 258.502 177.148 258.272 176.858 258.135C176.568 257.997 176.226 257.963 175.908 258.041Z" fill="#2F2E41"/>
</g>
<g id="Vector_37" filter="url(#filter34_d_7_161)">
<path d="M179.303 257.041C179.196 257.118 179.106 257.301 179.053 257.548C178.999 257.795 178.986 258.087 179.016 258.359L179.198 260L180 259.416L179.817 257.774C179.787 257.502 179.716 257.272 179.619 257.135C179.523 256.997 179.409 256.963 179.303 257.041Z" fill="#2F2E41"/>
</g>
<g id="Vector_38" filter="url(#filter35_d_7_161)">
<path d="M182.605 257.027C182.393 257.079 182.213 257.2 182.105 257.365C181.998 257.53 181.971 257.724 182.032 257.906L182.397 259L184 258.611L183.635 257.516C183.574 257.335 183.432 257.182 183.239 257.09C183.046 256.998 182.818 256.976 182.605 257.027V257.027Z" fill="#2F2E41"/>
</g>
<g id="Vector_39" filter="url(#filter36_d_7_161)">
<path d="M185.605 255.041C185.393 255.118 185.213 255.301 185.105 255.548C184.998 255.795 184.971 256.087 185.032 256.359L185.397 258L187 257.416L186.635 255.774C186.574 255.502 186.432 255.272 186.239 255.135C186.046 254.997 185.818 254.963 185.605 255.041Z" fill="#2F2E41"/>
</g>
<g id="Vector_40" filter="url(#filter37_d_7_161)">
<path d="M188.605 255.027C188.393 255.079 188.213 255.2 188.105 255.365C187.998 255.53 187.971 255.724 188.032 255.906L188.397 257L190 256.611L189.635 255.516C189.574 255.335 189.432 255.182 189.239 255.09C189.046 254.998 188.818 254.976 188.605 255.027V255.027Z" fill="#2F2E41"/>
</g>
<g id="left-hand" filter="url(#filter38_d_7_161)">
<path id="Vector_41" d="M179.568 249.594C179.152 248.975 178.603 248.455 177.961 248.069C177.32 247.683 176.6 247.44 175.854 247.359C175.107 247.278 174.352 247.36 173.64 247.599C172.929 247.839 172.28 248.229 171.738 248.744L160.986 244.078L156.528 249.854L171.805 256.231C172.739 257.076 173.953 257.551 175.217 257.569C176.481 257.586 177.708 257.144 178.665 256.326C179.622 255.508 180.242 254.371 180.409 253.13C180.575 251.889 180.276 250.631 179.568 249.594V249.594Z" fill="#FFB6B6"/>
<path id="Vector_42" d="M151.871 252.842C146.55 252.103 139.788 248.014 132.089 240.845C131.659 240.452 131.316 239.975 131.082 239.444C130.847 238.913 130.727 238.34 130.729 237.76C130.659 233.719 135.313 228.915 135.768 228.456L141.443 217.892C141.516 217.718 143.519 213.084 147.075 211.831C147.823 211.574 148.619 211.48 149.407 211.556C150.195 211.631 150.957 211.875 151.641 212.27C157.63 215.422 150.21 232.305 149.206 234.515L157.016 239.573L161.851 243.661L169.017 245.425L165.759 254.196L154.68 252.907C153.745 253 152.801 252.978 151.871 252.842Z" fill="#2F2E41"/>
</g>
<g id="head-actual" filter="url(#filter39_d_7_161)">
<path id="Vector_43" d="M162.365 172.935C163.262 165.525 158.052 158.814 150.729 157.945C143.406 157.077 136.743 162.38 135.846 169.79C134.949 177.2 140.158 183.912 147.481 184.78C154.804 185.649 161.468 180.345 162.365 172.935Z" fill="#FFB6B6"/>
<path id="head" d="M114.328 161.336C116.897 159.001 118.387 155.677 120.546 152.936C122.705 150.196 126.161 147.923 129.39 149.004C131.616 149.748 133.139 151.952 133.764 154.282C134.388 156.611 134.258 159.083 134.124 161.504C134.666 156.561 138.531 152.164 143.248 151.126C147.965 150.088 153.169 152.487 155.533 156.79C156.912 155.799 158.611 155.343 160.307 155.508C162.003 155.674 163.579 156.449 164.736 157.688C167.007 160.241 167.052 164.591 164.834 167.24C162.615 169.889 158.434 170.478 155.653 168.533L154.486 169.365C154.83 171.484 153.39 173.767 151.368 174.31C149.728 174.75 147.532 174.384 146.751 175.939C146.204 177.026 146.822 178.328 147.53 179.297C148.237 180.265 149.093 181.281 149.045 182.499C148.972 184.338 146.916 185.389 145.141 185.568C140.861 186 136.468 183.541 134.506 179.615C134.468 179.54 134.426 179.463 134.38 179.387C133.239 177.521 132.494 175.444 132.191 173.284C131.888 171.123 132.033 168.924 132.618 166.821C132.855 165.995 132.794 165.353 132.232 165.085C129.803 163.923 122.486 164.889 120.14 166.268C117.794 167.647 115.812 169.605 113.533 171.099C111.253 172.593 108.454 173.622 105.884 172.837C103.826 172.208 102.218 170.484 101.235 168.517C100.252 166.551 99.8164 164.342 99.4515 162.156C103.782 165.368 110.285 165.01 114.328 161.336Z" fill="#2F2E41"/>
</g>
<g id="Vector_44" filter="url(#filter40_d_7_161)">
<path d="M465.216 67H263.784C263.575 66.9944 263.375 66.8866 263.229 66.6997C263.082 66.5128 263 66.2616 263 66C263 65.7384 263.082 65.4872 263.229 65.3003C263.375 65.1134 263.575 65.0056 263.784 65H465.216C465.425 65.0056 465.625 65.1134 465.771 65.3003C465.918 65.4872 466 65.7384 466 66C466 66.2616 465.918 66.5128 465.771 66.6997C465.625 66.8866 465.425 66.9944 465.216 67V67Z" fill="#CACACA"/>
</g>
<g id="Vector_45" filter="url(#filter41_d_7_161)">
<path d="M277.5 61C279.985 61 282 58.9853 282 56.5C282 54.0147 279.985 52 277.5 52C275.015 52 273 54.0147 273 56.5C273 58.9853 275.015 61 277.5 61Z" fill="#3F3D56"/>
</g>
<g id="Vector_46" filter="url(#filter42_d_7_161)">
<path d="M294.5 61C296.985 61 299 58.9853 299 56.5C299 54.0147 296.985 52 294.5 52C292.015 52 290 54.0147 290 56.5C290 58.9853 292.015 61 294.5 61Z" fill="#3F3D56"/>
</g>
<g id="Vector_47" filter="url(#filter43_d_7_161)">
<path d="M310 61C312.761 61 315 58.9853 315 56.5C315 54.0147 312.761 52 310 52C307.239 52 305 54.0147 305 56.5C305 58.9853 307.239 61 310 61Z" fill="#3F3D56"/>
</g>
<g id="Vector_48" filter="url(#filter44_d_7_161)">
<path d="M456.095 53H443.905C443.663 53.0052 443.433 53.1129 443.264 53.2998C443.095 53.4868 443 53.7382 443 54C443 54.2618 443.095 54.5132 443.264 54.7002C443.433 54.8871 443.663 54.9948 443.905 55H456.095C456.337 54.9948 456.567 54.8871 456.736 54.7002C456.905 54.5132 457 54.2618 457 54C457 53.7382 456.905 53.4868 456.736 53.2998C456.567 53.1129 456.337 53.0052 456.095 53V53Z" fill="#3F3D56"/>
</g>
<g id="Vector_49" filter="url(#filter45_d_7_161)">
<path d="M456.095 56H443.905C443.663 56.0052 443.433 56.1129 443.264 56.2998C443.095 56.4868 443 56.7382 443 57C443 57.2618 443.095 57.5132 443.264 57.7002C443.433 57.8871 443.663 57.9948 443.905 58H456.095C456.337 57.9948 456.567 57.8871 456.736 57.7002C456.905 57.5132 457 57.2618 457 57C457 56.7382 456.905 56.4868 456.736 56.2998C456.567 56.1129 456.337 56.0052 456.095 56V56Z" fill="#3F3D56"/>
</g>
<g id="Vector_50" filter="url(#filter46_d_7_161)">
<path d="M-nan -nanL456.095 64H443.905C443.663 63.9922 443.433 63.8308 443.264 63.5503C443.095 63.2699 443 62.8928 443 62.5C443 62.1072 443.095 61.7301 443.264 61.4497C443.433 61.1692 443.663 61.0078 443.905 61H456.095C456.337 61.0078 456.567 61.1692 456.736 61.4497C456.905 61.7301 457 62.1072 457 62.5C457 62.8928 456.905 63.2699 456.736 63.5503C456.567 63.8308 456.337 63.9922 456.095 64L-nan -nanL-nan -nanZ" fill="#3F3D56"/>
</g>
<g id="list-right-1" filter="url(#filter47_d_7_161)">
<path id="Vector_51" d="M389.09 97.9073C392.296 97.9073 394.896 95.3346 394.896 92.161C394.896 88.9875 392.296 86.4148 389.09 86.4148C385.884 86.4148 383.285 88.9875 383.285 92.161C383.285 95.3346 385.884 97.9073 389.09 97.9073Z" fill="#E6E7E8"/>
<path id="Vector_52" d="M438.019 104.885H385.014C384.787 104.886 384.561 104.842 384.351 104.756C384.141 104.67 383.95 104.544 383.79 104.385C383.629 104.226 383.501 104.037 383.414 103.83C383.327 103.622 383.282 103.399 383.282 103.174C383.282 102.949 383.327 102.726 383.414 102.519C383.501 102.311 383.629 102.122 383.79 101.963C383.95 101.804 384.141 101.678 384.351 101.592C384.561 101.507 384.787 101.463 385.014 101.463H438.019C438.247 101.463 438.472 101.507 438.682 101.592C438.892 101.678 439.083 101.804 439.243 101.963C439.404 102.122 439.532 102.311 439.619 102.519C439.706 102.726 439.751 102.949 439.751 103.174C439.751 103.399 439.706 103.622 439.619 103.83C439.532 104.037 439.404 104.226 439.243 104.385C439.083 104.544 438.892 104.67 438.682 104.756C438.472 104.842 438.247 104.886 438.019 104.885V104.885Z" fill="#E6E7E8"/>
<path id="Vector_53" d="M398.179 111.647H385.014C384.555 111.647 384.116 111.466 383.791 111.146C383.467 110.825 383.285 110.389 383.285 109.936C383.285 109.482 383.467 109.046 383.791 108.726C384.116 108.405 384.555 108.224 385.014 108.224H398.179C398.637 108.224 399.077 108.405 399.401 108.726C399.725 109.046 399.908 109.482 399.908 109.936C399.908 110.389 399.725 110.825 399.401 111.146C399.077 111.466 398.637 111.647 398.179 111.647V111.647Z" fill="#E6E7E8"/>
</g>
<g id="list-right-3" filter="url(#filter48_d_7_161)">
<path id="Vector_54" d="M389.09 187.597C392.296 187.597 394.896 185.025 394.896 181.851C394.896 178.677 392.296 176.105 389.09 176.105C385.884 176.105 383.285 178.677 383.285 181.851C383.285 185.025 385.884 187.597 389.09 187.597Z" fill="#E6E7E8"/>
<path id="Vector_55" d="M438.019 194.575H385.014C384.555 194.575 384.116 194.395 383.791 194.074C383.467 193.753 383.285 193.318 383.285 192.864C383.285 192.41 383.467 191.975 383.791 191.654C384.116 191.333 384.555 191.153 385.014 191.153H438.019C438.478 191.153 438.917 191.333 439.242 191.654C439.566 191.975 439.748 192.41 439.748 192.864C439.748 193.318 439.566 193.753 439.242 194.074C438.917 194.395 438.478 194.575 438.019 194.575V194.575Z" fill="#E6E7E8"/>
<path id="Vector_56" d="M398.179 201.337H385.014C384.555 201.337 384.116 201.156 383.791 200.836C383.467 200.515 383.285 200.079 383.285 199.626C383.285 199.172 383.467 198.736 383.791 198.415C384.116 198.095 384.555 197.914 385.014 197.914H398.179C398.637 197.914 399.077 198.095 399.401 198.415C399.725 198.736 399.908 199.172 399.908 199.626C399.908 200.079 399.725 200.515 399.401 200.836C399.077 201.156 398.637 201.337 398.179 201.337V201.337Z" fill="#E6E7E8"/>
</g>
<g id="list-left-1" filter="url(#filter49_d_7_161)">
<path id="Vector_57" d="M295.659 173.987C298.865 173.987 301.464 171.414 301.464 168.241C301.464 165.067 298.865 162.494 295.659 162.494C292.453 162.494 289.854 165.067 289.854 168.241C289.854 171.414 292.453 173.987 295.659 173.987Z" fill="#E6E7E8"/>
<path id="Vector_58" d="M344.588 180.965H291.582C291.124 180.965 290.684 180.784 290.36 180.464C290.036 180.143 289.854 179.707 289.854 179.254C289.854 178.8 290.036 178.365 290.36 178.044C290.684 177.723 291.124 177.542 291.582 177.542H344.588C345.046 177.542 345.486 177.723 345.81 178.044C346.135 178.365 346.317 178.8 346.317 179.254C346.317 179.707 346.135 180.143 345.81 180.464C345.486 180.784 345.046 180.965 344.588 180.965V180.965Z" fill="#E6E7E8"/>
<path id="Vector_59" d="M304.747 187.726H291.582C291.124 187.726 290.684 187.546 290.36 187.225C290.036 186.904 289.854 186.469 289.854 186.015C289.854 185.561 290.036 185.126 290.36 184.805C290.684 184.484 291.124 184.304 291.582 184.304H304.747C305.206 184.304 305.646 184.484 305.97 184.805C306.294 185.126 306.476 185.561 306.476 186.015C306.476 186.469 306.294 186.904 305.97 187.225C305.646 187.546 305.206 187.726 304.747 187.726V187.726Z" fill="#E6E7E8"/>
</g>
<g id="list-right-2" filter="url(#filter50_d_7_161)">
<path id="Vector_60" d="M389.09 139.372C392.296 139.372 394.896 136.799 394.896 133.625C394.896 130.452 392.296 127.879 389.09 127.879C385.884 127.879 383.285 130.452 383.285 133.625C383.285 136.799 385.884 139.372 389.09 139.372Z" fill="#E6E7E8"/>
<path id="Vector_61" d="M438.019 146.35H385.014C384.555 146.35 384.116 146.169 383.791 145.848C383.467 145.528 383.285 145.092 383.285 144.638C383.285 144.185 383.467 143.749 383.791 143.429C384.116 143.108 384.555 142.927 385.014 142.927H438.019C438.478 142.927 438.917 143.108 439.242 143.429C439.566 143.749 439.748 144.185 439.748 144.638C439.748 145.092 439.566 145.528 439.242 145.848C438.917 146.169 438.478 146.35 438.019 146.35V146.35Z" fill="#E6E7E8"/>
<path id="Vector_62" d="M416.865 153.111H385.014C384.555 153.111 384.116 152.931 383.791 152.61C383.467 152.289 383.285 151.854 383.285 151.4C383.285 150.946 383.467 150.511 383.791 150.19C384.116 149.869 384.555 149.689 385.014 149.689H416.865C417.324 149.689 417.763 149.869 418.087 150.19C418.412 150.511 418.594 150.946 418.594 151.4C418.594 151.854 418.412 152.289 418.087 152.61C417.763 152.931 417.324 153.111 416.865 153.111V153.111Z" fill="#E6E7E8"/>
<path id="Vector_63" d="M407.99 159.873H385.014C384.555 159.873 384.116 159.692 383.791 159.371C383.467 159.05 383.285 158.615 383.285 158.161C383.285 157.708 383.467 157.272 383.791 156.951C384.116 156.63 384.555 156.45 385.014 156.45H407.99C408.449 156.45 408.889 156.63 409.213 156.951C409.537 157.272 409.719 157.708 409.719 158.161C409.719 158.615 409.537 159.05 409.213 159.371C408.889 159.692 408.449 159.873 407.99 159.873V159.873Z" fill="#E6E7E8"/>
</g>
<g id="Vector_64" filter="url(#filter51_d_7_161)">
<path d="M336 96.581V156.423C336 156.841 335.832 157.241 335.533 157.537C335.234 157.832 334.83 157.999 334.407 158H302.506C298.977 154.765 296.081 150.915 293.965 146.641C293.826 146.366 293.693 146.089 293.567 145.807C291.638 141.671 290.471 137.229 290.12 132.689C290.096 132.409 290.076 132.132 290.063 131.85C290.02 131.13 290 130.398 290 129.665C289.994 124.783 290.926 119.945 292.748 115.407C292.857 115.125 292.973 114.846 293.092 114.568C295.491 108.993 299.18 104.051 303.862 100.141C304.14 99.9061 304.422 99.6782 304.706 99.4566L304.771 99.4049C308.435 96.5381 312.974 94.9851 317.647 95.0001H334.407C334.83 95.0014 335.236 95.1686 335.534 95.465C335.833 95.7613 336 96.1627 336 96.581Z" fill="#2BA8FD" fill-opacity="0.79" shape-rendering="crispEdges"/>
</g>
<g id="Vector_65" opacity="0.2" filter="url(#filter52_d_7_161)">
<path d="M336 115.515V114.672H321.78V95H320.933V114.672H304.636V99.4801C304.351 99.7028 304.07 99.932 303.792 100.168V114.672H293.028C292.908 114.951 292.793 115.232 292.684 115.515H303.792V132.045H290C290.013 132.328 290.033 132.607 290.057 132.888H303.792V146.075H293.502C293.628 146.359 293.761 146.638 293.9 146.914H303.792V158H304.636V146.914H320.933V158H321.78V146.914H336V146.075H321.78C321.779 144.344 322.122 142.629 322.789 141.029C323.455 139.428 324.432 137.975 325.664 136.75C326.896 135.525 328.359 134.554 329.968 133.891C331.578 133.229 333.303 132.888 335.045 132.888H336V132.045H321.78V115.515H336ZM320.933 146.075H304.636V132.888H320.933V146.075ZM320.933 132.045H304.636V131.714C304.636 129.587 305.058 127.48 305.877 125.515C306.696 123.549 307.896 121.763 309.41 120.259C310.923 118.755 312.72 117.562 314.697 116.748C316.674 115.934 318.793 115.515 320.933 115.515V132.045Z" fill="black"/>
</g>
<g id="plant" filter="url(#filter53_d_7_161)">
<path d="M333.88 146.149C333.547 146.165 333.217 146.075 332.935 145.892C332.654 145.708 332.433 145.44 332.305 145.124C332.176 144.808 332.145 144.459 332.216 144.124C332.287 143.789 332.456 143.484 332.701 143.252C332.742 143.084 332.772 142.964 332.813 142.796C332.798 142.76 332.783 142.724 332.768 142.687C331.271 139.018 321.719 149.247 321.306 152.696C321.125 154.22 321.201 155.765 321.533 157.263C318.439 150.324 316.832 142.783 316.822 135.15C316.821 133.235 316.925 131.321 317.132 129.417C317.303 127.857 317.541 126.308 317.845 124.769C319.503 116.423 323.064 108.6 328.234 101.943C331.191 102.113 333.783 101.65 334.033 95.7587C334.077 94.7107 334.833 93.8033 335 92.771C334.718 92.8091 334.431 92.8328 334.149 92.8519C334.061 92.8566 333.968 92.8614 333.88 92.8661L333.847 92.8677C333.537 92.882 333.229 92.8038 332.961 92.6425C332.693 92.4813 332.476 92.2438 332.336 91.9587C332.196 91.6736 332.14 91.3531 332.173 91.0357C332.206 90.7182 332.328 90.4175 332.524 90.1696C332.646 90.0154 332.768 89.8613 332.89 89.7072C333.075 89.4693 333.265 89.2362 333.45 88.9984C333.471 88.9758 333.491 88.9519 333.51 88.927C333.723 88.6558 333.936 88.3894 334.149 88.1182C333.76 87.4982 333.237 86.9788 332.621 86.6006C330.488 85.3161 327.545 86.2057 326.004 88.1896C324.458 90.1734 324.166 92.9565 324.703 95.4351C325.231 97.5442 326.104 99.5455 327.286 101.353C327.17 101.506 327.049 101.653 326.934 101.805C324.819 104.601 322.976 107.603 321.43 110.768C321.868 107.258 316.521 94.5795 314.454 91.894C311.971 88.6684 306.878 90.0761 306.441 94.1651C306.436 94.2047 306.432 94.2443 306.428 94.2838C306.735 94.4619 307.036 94.651 307.33 94.8509C307.699 95.1047 307.986 95.4673 308.151 95.8912C308.317 96.3152 308.354 96.7806 308.258 97.2266C308.162 97.6726 307.937 98.0784 307.613 98.3907C307.288 98.7031 306.88 98.9074 306.441 98.977L306.396 98.9842C302.285 105.018 315.463 120.722 318.761 117.196C317.209 121.719 316.235 126.43 315.864 131.211C315.654 134.032 315.667 136.865 315.901 139.684L315.887 139.584C315.154 133.445 302.582 124.317 298.91 125.078C296.795 125.516 294.712 125.416 295.033 127.609C295.038 127.644 295.043 127.679 295.049 127.714C295.618 127.953 296.173 128.228 296.71 128.537C297.017 128.715 297.318 128.904 297.612 129.104C297.981 129.358 298.267 129.721 298.433 130.145C298.599 130.569 298.636 131.034 298.54 131.48C298.444 131.926 298.219 132.332 297.894 132.644C297.57 132.957 297.162 133.161 296.722 133.231L296.677 133.238C296.645 133.242 296.617 133.247 296.585 133.252C294.714 139.87 308.59 150.552 317.026 147.153H317.03C317.866 150.888 319.078 154.523 320.645 158H333.556C333.602 157.853 333.644 157.7 333.686 157.553C332.491 157.63 331.291 157.557 330.113 157.334C331.071 156.126 332.029 154.908 332.987 153.699C333.008 153.677 333.028 153.653 333.047 153.628C333.533 153.009 334.024 152.396 334.509 151.777L334.51 151.777C334.536 149.881 334.324 147.989 333.88 146.149L333.88 146.149ZM319.094 116.249L319.101 116.239L319.094 116.258V116.249ZM316.234 142.752L316.123 142.496C316.128 142.31 316.128 142.124 316.123 141.934C316.123 141.882 316.114 141.83 316.114 141.777C316.156 142.105 316.193 142.434 316.239 142.762L316.234 142.752Z" fill="#2F2E41"/>
</g>
</g>
<defs>
<filter id="filter0_dd_7_161" x="0" y="0" width="550" height="415" filterUnits="userSpaceOnUse" color-interpolation-filters="sRGB">
<feFlood flood-opacity="0" result="BackgroundImageFix"/>
<feColorMatrix in="SourceAlpha" type="matrix" values="0 0 0 0 0 0 0 0 0 0 0 0 0 0 0 0 0 0 127 0" result="hardAlpha"/>
<feOffset dy="4"/>
<feGaussianBlur stdDeviation="2"/>
<feComposite in2="hardAlpha" operator="out"/>
<feColorMatrix type="matrix" values="0 0 0 0 0 0 0 0 0 0 0 0 0 0 0 0 0 0 0.25 0"/>
<feBlend mode="normal" in2="BackgroundImageFix" result="effect1_dropShadow_7_161"/>
<feColorMatrix in="SourceAlpha" type="matrix" values="0 0 0 0 0 0 0 0 0 0 0 0 0 0 0 0 0 0 127 0" result="hardAlpha"/>
<feOffset dy="4"/>
<feGaussianBlur stdDeviation="2"/>
<feComposite in2="hardAlpha" operator="out"/>
<feColorMatrix type="matrix" values="0 0 0 0 0 0 0 0 0 0 0 0 0 0 0 0 0 0 0.25 0"/>
<feBlend mode="normal" in2="effect1_dropShadow_7_161" result="effect2_dropShadow_7_161"/>
<feBlend mode="normal" in="SourceGraphic" in2="effect2_dropShadow_7_161" result="shape"/>
</filter>
<filter id="filter1_d_7_161" x="86" y="221" width="48" height="76" filterUnits="userSpaceOnUse" color-interpolation-filters="sRGB">
<feFlood flood-opacity="0" result="BackgroundImageFix"/>
<feColorMatrix in="SourceAlpha" type="matrix" values="0 0 0 0 0 0 0 0 0 0 0 0 0 0 0 0 0 0 127 0" result="hardAlpha"/>
<feOffset dy="4"/>
<feGaussianBlur stdDeviation="2"/>
<feComposite in2="hardAlpha" operator="out"/>
<feColorMatrix type="matrix" values="0 0 0 0 0 0 0 0 0 0 0 0 0 0 0 0 0 0 0.25 0"/>
<feBlend mode="normal" in2="BackgroundImageFix" result="effect1_dropShadow_7_161"/>
<feBlend mode="normal" in="SourceGraphic" in2="effect1_dropShadow_7_161" result="shape"/>
</filter>
<filter id="filter2_d_7_161" x="129.844" y="213.734" width="62.5451" height="42.2319" filterUnits="userSpaceOnUse" color-interpolation-filters="sRGB">
<feFlood flood-opacity="0" result="BackgroundImageFix"/>
<feColorMatrix in="SourceAlpha" type="matrix" values="0 0 0 0 0 0 0 0 0 0 0 0 0 0 0 0 0 0 127 0" result="hardAlpha"/>
<feOffset dy="4"/>
<feGaussianBlur stdDeviation="2"/>
<feComposite in2="hardAlpha" operator="out"/>
<feColorMatrix type="matrix" values="0 0 0 0 0 0 0 0 0 0 0 0 0 0 0 0 0 0 0.25 0"/>
<feBlend mode="normal" in2="BackgroundImageFix" result="effect1_dropShadow_7_161"/>
<feBlend mode="normal" in="SourceGraphic" in2="effect1_dropShadow_7_161" result="shape"/>
</filter>
<filter id="filter3_d_7_161" x="218" y="265" width="43" height="26" filterUnits="userSpaceOnUse" color-interpolation-filters="sRGB">
<feFlood flood-opacity="0" result="BackgroundImageFix"/>
<feColorMatrix in="SourceAlpha" type="matrix" values="0 0 0 0 0 0 0 0 0 0 0 0 0 0 0 0 0 0 127 0" result="hardAlpha"/>
<feOffset dy="4"/>
<feGaussianBlur stdDeviation="2"/>
<feComposite in2="hardAlpha" operator="out"/>
<feColorMatrix type="matrix" values="0 0 0 0 0 0 0 0 0 0 0 0 0 0 0 0 0 0 0.25 0"/>
<feBlend mode="normal" in2="BackgroundImageFix" result="effect1_dropShadow_7_161"/>
<feBlend mode="normal" in="SourceGraphic" in2="effect1_dropShadow_7_161" result="shape"/>
</filter>
<filter id="filter4_d_7_161" x="247" y="269" width="31" height="30" filterUnits="userSpaceOnUse" color-interpolation-filters="sRGB">
<feFlood flood-opacity="0" result="BackgroundImageFix"/>
<feColorMatrix in="SourceAlpha" type="matrix" values="0 0 0 0 0 0 0 0 0 0 0 0 0 0 0 0 0 0 127 0" result="hardAlpha"/>
<feOffset dy="4"/>
<feGaussianBlur stdDeviation="2"/>
<feComposite in2="hardAlpha" operator="out"/>
<feColorMatrix type="matrix" values="0 0 0 0 0 0 0 0 0 0 0 0 0 0 0 0 0 0 0.25 0"/>
<feBlend mode="normal" in2="BackgroundImageFix" result="effect1_dropShadow_7_161"/>
<feBlend mode="normal" in="SourceGraphic" in2="effect1_dropShadow_7_161" result="shape"/>
</filter>
<filter id="filter5_d_7_161" x="117" y="249" width="138" height="44" filterUnits="userSpaceOnUse" color-interpolation-filters="sRGB">
<feFlood flood-opacity="0" result="BackgroundImageFix"/>
<feColorMatrix in="SourceAlpha" type="matrix" values="0 0 0 0 0 0 0 0 0 0 0 0 0 0 0 0 0 0 127 0" result="hardAlpha"/>
<feOffset dy="4"/>
<feGaussianBlur stdDeviation="2"/>
<feComposite in2="hardAlpha" operator="out"/>
<feColorMatrix type="matrix" values="0 0 0 0 0 0 0 0 0 0 0 0 0 0 0 0 0 0 0.25 0"/>
<feBlend mode="normal" in2="BackgroundImageFix" result="effect1_dropShadow_7_161"/>
<feBlend mode="normal" in="SourceGraphic" in2="effect1_dropShadow_7_161" result="shape"/>
</filter>
<filter id="filter6_d_7_161" x="117.563" y="263.675" width="110.443" height="99.3203" filterUnits="userSpaceOnUse" color-interpolation-filters="sRGB">
<feFlood flood-opacity="0" result="BackgroundImageFix"/>
<feColorMatrix in="SourceAlpha" type="matrix" values="0 0 0 0 0 0 0 0 0 0 0 0 0 0 0 0 0 0 127 0" result="hardAlpha"/>
<feOffset dy="4"/>
<feGaussianBlur stdDeviation="2"/>
<feComposite in2="hardAlpha" operator="out"/>
<feColorMatrix type="matrix" values="0 0 0 0 0 0 0 0 0 0 0 0 0 0 0 0 0 0 0.25 0"/>
<feBlend mode="normal" in2="BackgroundImageFix" result="effect1_dropShadow_7_161"/>
<feBlend mode="normal" in="SourceGraphic" in2="effect1_dropShadow_7_161" result="shape"/>
</filter>
<filter id="filter7_d_7_161" x="146" y="234" width="18" height="43" filterUnits="userSpaceOnUse" color-interpolation-filters="sRGB">
<feFlood flood-opacity="0" result="BackgroundImageFix"/>
<feColorMatrix in="SourceAlpha" type="matrix" values="0 0 0 0 0 0 0 0 0 0 0 0 0 0 0 0 0 0 127 0" result="hardAlpha"/>
<feOffset dy="4"/>
<feGaussianBlur stdDeviation="2"/>
<feComposite in2="hardAlpha" operator="out"/>
<feColorMatrix type="matrix" values="0 0 0 0 0 0 0 0 0 0 0 0 0 0 0 0 0 0 0.25 0"/>
<feBlend mode="normal" in2="BackgroundImageFix" result="effect1_dropShadow_7_161"/>
<feBlend mode="normal" in="SourceGraphic" in2="effect1_dropShadow_7_161" result="shape"/>
</filter>
<filter id="filter8_d_7_161" x="145" y="194" width="21" height="46" filterUnits="userSpaceOnUse" color-interpolation-filters="sRGB">
<feFlood flood-opacity="0" result="BackgroundImageFix"/>
<feColorMatrix in="SourceAlpha" type="matrix" values="0 0 0 0 0 0 0 0 0 0 0 0 0 0 0 0 0 0 127 0" result="hardAlpha"/>
<feOffset dy="4"/>
<feGaussianBlur stdDeviation="2"/>
<feComposite in2="hardAlpha" operator="out"/>
<feColorMatrix type="matrix" values="0 0 0 0 0 0 0 0 0 0 0 0 0 0 0 0 0 0 0.25 0"/>
<feBlend mode="normal" in2="BackgroundImageFix" result="effect1_dropShadow_7_161"/>
<feBlend mode="normal" in="SourceGraphic" in2="effect1_dropShadow_7_161" result="shape"/>
</filter>
<filter id="filter9_d_7_161" x="127" y="196" width="37" height="81" filterUnits="userSpaceOnUse" color-interpolation-filters="sRGB">
<feFlood flood-opacity="0" result="BackgroundImageFix"/>
<feColorMatrix in="SourceAlpha" type="matrix" values="0 0 0 0 0 0 0 0 0 0 0 0 0 0 0 0 0 0 127 0" result="hardAlpha"/>
<feOffset dy="4"/>
<feGaussianBlur stdDeviation="2"/>
<feComposite in2="hardAlpha" operator="out"/>
<feColorMatrix type="matrix" values="0 0 0 0 0 0 0 0 0 0 0 0 0 0 0 0 0 0 0.25 0"/>
<feBlend mode="normal" in2="BackgroundImageFix" result="effect1_dropShadow_7_161"/>
<feBlend mode="normal" in="SourceGraphic" in2="effect1_dropShadow_7_161" result="shape"/>
</filter>
<filter id="filter10_d_7_161" x="117" y="186" width="45" height="91" filterUnits="userSpaceOnUse" color-interpolation-filters="sRGB">
<feFlood flood-opacity="0" result="BackgroundImageFix"/>
<feColorMatrix in="SourceAlpha" type="matrix" values="0 0 0 0 0 0 0 0 0 0 0 0 0 0 0 0 0 0 127 0" result="hardAlpha"/>
<feOffset dy="4"/>
<feGaussianBlur stdDeviation="2"/>
<feComposite in2="hardAlpha" operator="out"/>
<feColorMatrix type="matrix" values="0 0 0 0 0 0 0 0 0 0 0 0 0 0 0 0 0 0 0.25 0"/>
<feBlend mode="normal" in2="BackgroundImageFix" result="effect1_dropShadow_7_161"/>
<feBlend mode="normal" in="SourceGraphic" in2="effect1_dropShadow_7_161" result="shape"/>
</filter>
<filter id="filter11_d_7_161" x="158" y="248" width="45" height="28" filterUnits="userSpaceOnUse" color-interpolation-filters="sRGB">
<feFlood flood-opacity="0" result="BackgroundImageFix"/>
<feColorMatrix in="SourceAlpha" type="matrix" values="0 0 0 0 0 0 0 0 0 0 0 0 0 0 0 0 0 0 127 0" result="hardAlpha"/>
<feOffset dy="4"/>
<feGaussianBlur stdDeviation="2"/>
<feComposite in2="hardAlpha" operator="out"/>
<feColorMatrix type="matrix" values="0 0 0 0 0 0 0 0 0 0 0 0 0 0 0 0 0 0 0.25 0"/>
<feBlend mode="normal" in2="BackgroundImageFix" result="effect1_dropShadow_7_161"/>
<feBlend mode="normal" in="SourceGraphic" in2="effect1_dropShadow_7_161" result="shape"/>
</filter>
<filter id="filter12_d_7_161" x="161" y="259" width="42" height="17" filterUnits="userSpaceOnUse" color-interpolation-filters="sRGB">
<feFlood flood-opacity="0" result="BackgroundImageFix"/>
<feColorMatrix in="SourceAlpha" type="matrix" values="0 0 0 0 0 0 0 0 0 0 0 0 0 0 0 0 0 0 127 0" result="hardAlpha"/>
<feOffset dy="4"/>
<feGaussianBlur stdDeviation="2"/>
<feComposite in2="hardAlpha" operator="out"/>
<feColorMatrix type="matrix" values="0 0 0 0 0 0 0 0 0 0 0 0 0 0 0 0 0 0 0.25 0"/>
<feBlend mode="normal" in2="BackgroundImageFix" result="effect1_dropShadow_7_161"/>
<feBlend mode="normal" in="SourceGraphic" in2="effect1_dropShadow_7_161" result="shape"/>
</filter>
<filter id="filter13_d_7_161" x="185" y="199" width="18" height="69" filterUnits="userSpaceOnUse" color-interpolation-filters="sRGB">
<feFlood flood-opacity="0" result="BackgroundImageFix"/>
<feColorMatrix in="SourceAlpha" type="matrix" values="0 0 0 0 0 0 0 0 0 0 0 0 0 0 0 0 0 0 127 0" result="hardAlpha"/>
<feOffset dy="4"/>
<feGaussianBlur stdDeviation="2"/>
<feComposite in2="hardAlpha" operator="out"/>
<feColorMatrix type="matrix" values="0 0 0 0 0 0 0 0 0 0 0 0 0 0 0 0 0 0 0.25 0"/>
<feBlend mode="normal" in2="BackgroundImageFix" result="effect1_dropShadow_7_161"/>
<feBlend mode="normal" in="SourceGraphic" in2="effect1_dropShadow_7_161" result="shape"/>
</filter>
<filter id="filter14_d_7_161" x="189" y="199" width="14" height="69" filterUnits="userSpaceOnUse" color-interpolation-filters="sRGB">
<feFlood flood-opacity="0" result="BackgroundImageFix"/>
<feColorMatrix in="SourceAlpha" type="matrix" values="0 0 0 0 0 0 0 0 0 0 0 0 0 0 0 0 0 0 127 0" result="hardAlpha"/>
<feOffset dy="4"/>
<feGaussianBlur stdDeviation="2"/>
<feComposite in2="hardAlpha" operator="out"/>
<feColorMatrix type="matrix" values="0 0 0 0 0 0 0 0 0 0 0 0 0 0 0 0 0 0 0.25 0"/>
<feBlend mode="normal" in2="BackgroundImageFix" result="effect1_dropShadow_7_161"/>
<feBlend mode="normal" in="SourceGraphic" in2="effect1_dropShadow_7_161" result="shape"/>
</filter>
<filter id="filter15_d_7_161" x="186" y="201" width="12" height="51" filterUnits="userSpaceOnUse" color-interpolation-filters="sRGB">
<feFlood flood-opacity="0" result="BackgroundImageFix"/>
<feColorMatrix in="SourceAlpha" type="matrix" values="0 0 0 0 0 0 0 0 0 0 0 0 0 0 0 0 0 0 127 0" result="hardAlpha"/>
<feOffset dy="4"/>
<feGaussianBlur stdDeviation="2"/>
<feComposite in2="hardAlpha" operator="out"/>
<feColorMatrix type="matrix" values="0 0 0 0 0 0 0 0 0 0 0 0 0 0 0 0 0 0 0.25 0"/>
<feBlend mode="normal" in2="BackgroundImageFix" result="effect1_dropShadow_7_161"/>
<feBlend mode="normal" in="SourceGraphic" in2="effect1_dropShadow_7_161" result="shape"/>
</filter>
<filter id="filter16_d_7_161" x="161" y="255" width="12" height="16" filterUnits="userSpaceOnUse" color-interpolation-filters="sRGB">
<feFlood flood-opacity="0" result="BackgroundImageFix"/>
<feColorMatrix in="SourceAlpha" type="matrix" values="0 0 0 0 0 0 0 0 0 0 0 0 0 0 0 0 0 0 127 0" result="hardAlpha"/>
<feOffset dy="4"/>
<feGaussianBlur stdDeviation="2"/>
<feComposite in2="hardAlpha" operator="out"/>
<feColorMatrix type="matrix" values="0 0 0 0 0 0 0 0 0 0 0 0 0 0 0 0 0 0 0.25 0"/>
<feBlend mode="normal" in2="BackgroundImageFix" result="effect1_dropShadow_7_161"/>
<feBlend mode="normal" in="SourceGraphic" in2="effect1_dropShadow_7_161" result="shape"/>
</filter>
<filter id="filter17_d_7_161" x="165" y="255" width="9" height="10" filterUnits="userSpaceOnUse" color-interpolation-filters="sRGB">
<feFlood flood-opacity="0" result="BackgroundImageFix"/>
<feColorMatrix in="SourceAlpha" type="matrix" values="0 0 0 0 0 0 0 0 0 0 0 0 0 0 0 0 0 0 127 0" result="hardAlpha"/>
<feOffset dy="4"/>
<feGaussianBlur stdDeviation="2"/>
<feComposite in2="hardAlpha" operator="out"/>
<feColorMatrix type="matrix" values="0 0 0 0 0 0 0 0 0 0 0 0 0 0 0 0 0 0 0.25 0"/>
<feBlend mode="normal" in2="BackgroundImageFix" result="effect1_dropShadow_7_161"/>
<feBlend mode="normal" in="SourceGraphic" in2="effect1_dropShadow_7_161" result="shape"/>
</filter>
<filter id="filter18_d_7_161" x="167" y="254" width="10" height="9" filterUnits="userSpaceOnUse" color-interpolation-filters="sRGB">
<feFlood flood-opacity="0" result="BackgroundImageFix"/>
<feColorMatrix in="SourceAlpha" type="matrix" values="0 0 0 0 0 0 0 0 0 0 0 0 0 0 0 0 0 0 127 0" result="hardAlpha"/>
<feOffset dy="4"/>
<feGaussianBlur stdDeviation="2"/>
<feComposite in2="hardAlpha" operator="out"/>
<feColorMatrix type="matrix" values="0 0 0 0 0 0 0 0 0 0 0 0 0 0 0 0 0 0 0.25 0"/>
<feBlend mode="normal" in2="BackgroundImageFix" result="effect1_dropShadow_7_161"/>
<feBlend mode="normal" in="SourceGraphic" in2="effect1_dropShadow_7_161" result="shape"/>
</filter>
<filter id="filter19_d_7_161" x="171" y="253" width="9" height="10" filterUnits="userSpaceOnUse" color-interpolation-filters="sRGB">
<feFlood flood-opacity="0" result="BackgroundImageFix"/>
<feColorMatrix in="SourceAlpha" type="matrix" values="0 0 0 0 0 0 0 0 0 0 0 0 0 0 0 0 0 0 127 0" result="hardAlpha"/>
<feOffset dy="4"/>
<feGaussianBlur stdDeviation="2"/>
<feComposite in2="hardAlpha" operator="out"/>
<feColorMatrix type="matrix" values="0 0 0 0 0 0 0 0 0 0 0 0 0 0 0 0 0 0 0.25 0"/>
<feBlend mode="normal" in2="BackgroundImageFix" result="effect1_dropShadow_7_161"/>
<feBlend mode="normal" in="SourceGraphic" in2="effect1_dropShadow_7_161" result="shape"/>
</filter>
<filter id="filter20_d_7_161" x="173" y="252" width="11" height="11" filterUnits="userSpaceOnUse" color-interpolation-filters="sRGB">
<feFlood flood-opacity="0" result="BackgroundImageFix"/>
<feColorMatrix in="SourceAlpha" type="matrix" values="0 0 0 0 0 0 0 0 0 0 0 0 0 0 0 0 0 0 127 0" result="hardAlpha"/>
<feOffset dy="4"/>
<feGaussianBlur stdDeviation="2"/>
<feComposite in2="hardAlpha" operator="out"/>
<feColorMatrix type="matrix" values="0 0 0 0 0 0 0 0 0 0 0 0 0 0 0 0 0 0 0.25 0"/>
<feBlend mode="normal" in2="BackgroundImageFix" result="effect1_dropShadow_7_161"/>
<feBlend mode="normal" in="SourceGraphic" in2="effect1_dropShadow_7_161" result="shape"/>
</filter>
<filter id="filter21_d_7_161" x="176" y="251" width="11" height="10" filterUnits="userSpaceOnUse" color-interpolation-filters="sRGB">
<feFlood flood-opacity="0" result="BackgroundImageFix"/>
<feColorMatrix in="SourceAlpha" type="matrix" values="0 0 0 0 0 0 0 0 0 0 0 0 0 0 0 0 0 0 127 0" result="hardAlpha"/>
<feOffset dy="4"/>
<feGaussianBlur stdDeviation="2"/>
<feComposite in2="hardAlpha" operator="out"/>
<feColorMatrix type="matrix" values="0 0 0 0 0 0 0 0 0 0 0 0 0 0 0 0 0 0 0.25 0"/>
<feBlend mode="normal" in2="BackgroundImageFix" result="effect1_dropShadow_7_161"/>
<feBlend mode="normal" in="SourceGraphic" in2="effect1_dropShadow_7_161" result="shape"/>
</filter>
<filter id="filter22_d_7_161" x="180" y="250" width="9" height="11" filterUnits="userSpaceOnUse" color-interpolation-filters="sRGB">
<feFlood flood-opacity="0" result="BackgroundImageFix"/>
<feColorMatrix in="SourceAlpha" type="matrix" values="0 0 0 0 0 0 0 0 0 0 0 0 0 0 0 0 0 0 127 0" result="hardAlpha"/>
<feOffset dy="4"/>
<feGaussianBlur stdDeviation="2"/>
<feComposite in2="hardAlpha" operator="out"/>
<feColorMatrix type="matrix" values="0 0 0 0 0 0 0 0 0 0 0 0 0 0 0 0 0 0 0.25 0"/>
<feBlend mode="normal" in2="BackgroundImageFix" result="effect1_dropShadow_7_161"/>
<feBlend mode="normal" in="SourceGraphic" in2="effect1_dropShadow_7_161" result="shape"/>
</filter>
<filter id="filter23_d_7_161" x="183" y="249" width="10" height="11" filterUnits="userSpaceOnUse" color-interpolation-filters="sRGB">
<feFlood flood-opacity="0" result="BackgroundImageFix"/>
<feColorMatrix in="SourceAlpha" type="matrix" values="0 0 0 0 0 0 0 0 0 0 0 0 0 0 0 0 0 0 127 0" result="hardAlpha"/>
<feOffset dy="4"/>
<feGaussianBlur stdDeviation="2"/>
<feComposite in2="hardAlpha" operator="out"/>
<feColorMatrix type="matrix" values="0 0 0 0 0 0 0 0 0 0 0 0 0 0 0 0 0 0 0.25 0"/>
<feBlend mode="normal" in2="BackgroundImageFix" result="effect1_dropShadow_7_161"/>
<feBlend mode="normal" in="SourceGraphic" in2="effect1_dropShadow_7_161" result="shape"/>
</filter>
<filter id="filter24_d_7_161" x="165" y="257" width="9" height="11" filterUnits="userSpaceOnUse" color-interpolation-filters="sRGB">
<feFlood flood-opacity="0" result="BackgroundImageFix"/>
<feColorMatrix in="SourceAlpha" type="matrix" values="0 0 0 0 0 0 0 0 0 0 0 0 0 0 0 0 0 0 127 0" result="hardAlpha"/>
<feOffset dy="4"/>
<feGaussianBlur stdDeviation="2"/>
<feComposite in2="hardAlpha" operator="out"/>
<feColorMatrix type="matrix" values="0 0 0 0 0 0 0 0 0 0 0 0 0 0 0 0 0 0 0.25 0"/>
<feBlend mode="normal" in2="BackgroundImageFix" result="effect1_dropShadow_7_161"/>
<feBlend mode="normal" in="SourceGraphic" in2="effect1_dropShadow_7_161" result="shape"/>
</filter>
<filter id="filter25_d_7_161" x="168" y="256" width="10" height="11" filterUnits="userSpaceOnUse" color-interpolation-filters="sRGB">
<feFlood flood-opacity="0" result="BackgroundImageFix"/>
<feColorMatrix in="SourceAlpha" type="matrix" values="0 0 0 0 0 0 0 0 0 0 0 0 0 0 0 0 0 0 127 0" result="hardAlpha"/>
<feOffset dy="4"/>
<feGaussianBlur stdDeviation="2"/>
<feComposite in2="hardAlpha" operator="out"/>
<feColorMatrix type="matrix" values="0 0 0 0 0 0 0 0 0 0 0 0 0 0 0 0 0 0 0.25 0"/>
<feBlend mode="normal" in2="BackgroundImageFix" result="effect1_dropShadow_7_161"/>
<feBlend mode="normal" in="SourceGraphic" in2="effect1_dropShadow_7_161" result="shape"/>
</filter>
<filter id="filter26_d_7_161" x="171" y="255" width="10" height="10" filterUnits="userSpaceOnUse" color-interpolation-filters="sRGB">
<feFlood flood-opacity="0" result="BackgroundImageFix"/>
<feColorMatrix in="SourceAlpha" type="matrix" values="0 0 0 0 0 0 0 0 0 0 0 0 0 0 0 0 0 0 127 0" result="hardAlpha"/>
<feOffset dy="4"/>
<feGaussianBlur stdDeviation="2"/>
<feComposite in2="hardAlpha" operator="out"/>
<feColorMatrix type="matrix" values="0 0 0 0 0 0 0 0 0 0 0 0 0 0 0 0 0 0 0.25 0"/>
<feBlend mode="normal" in2="BackgroundImageFix" result="effect1_dropShadow_7_161"/>
<feBlend mode="normal" in="SourceGraphic" in2="effect1_dropShadow_7_161" result="shape"/>
</filter>
<filter id="filter27_d_7_161" x="175" y="255" width="9" height="10" filterUnits="userSpaceOnUse" color-interpolation-filters="sRGB">
<feFlood flood-opacity="0" result="BackgroundImageFix"/>
<feColorMatrix in="SourceAlpha" type="matrix" values="0 0 0 0 0 0 0 0 0 0 0 0 0 0 0 0 0 0 127 0" result="hardAlpha"/>
<feOffset dy="4"/>
<feGaussianBlur stdDeviation="2"/>
<feComposite in2="hardAlpha" operator="out"/>
<feColorMatrix type="matrix" values="0 0 0 0 0 0 0 0 0 0 0 0 0 0 0 0 0 0 0.25 0"/>
<feBlend mode="normal" in2="BackgroundImageFix" result="effect1_dropShadow_7_161"/>
<feBlend mode="normal" in="SourceGraphic" in2="effect1_dropShadow_7_161" result="shape"/>
</filter>
<filter id="filter28_d_7_161" x="177" y="254" width="10" height="10" filterUnits="userSpaceOnUse" color-interpolation-filters="sRGB">
<feFlood flood-opacity="0" result="BackgroundImageFix"/>
<feColorMatrix in="SourceAlpha" type="matrix" values="0 0 0 0 0 0 0 0 0 0 0 0 0 0 0 0 0 0 127 0" result="hardAlpha"/>
<feOffset dy="4"/>
<feGaussianBlur stdDeviation="2"/>
<feComposite in2="hardAlpha" operator="out"/>
<feColorMatrix type="matrix" values="0 0 0 0 0 0 0 0 0 0 0 0 0 0 0 0 0 0 0.25 0"/>
<feBlend mode="normal" in2="BackgroundImageFix" result="effect1_dropShadow_7_161"/>
<feBlend mode="normal" in="SourceGraphic" in2="effect1_dropShadow_7_161" result="shape"/>
</filter>
<filter id="filter29_d_7_161" x="181" y="253" width="9" height="10" filterUnits="userSpaceOnUse" color-interpolation-filters="sRGB">
<feFlood flood-opacity="0" result="BackgroundImageFix"/>
<feColorMatrix in="SourceAlpha" type="matrix" values="0 0 0 0 0 0 0 0 0 0 0 0 0 0 0 0 0 0 127 0" result="hardAlpha"/>
<feOffset dy="4"/>
<feGaussianBlur stdDeviation="2"/>
<feComposite in2="hardAlpha" operator="out"/>
<feColorMatrix type="matrix" values="0 0 0 0 0 0 0 0 0 0 0 0 0 0 0 0 0 0 0.25 0"/>
<feBlend mode="normal" in2="BackgroundImageFix" result="effect1_dropShadow_7_161"/>
<feBlend mode="normal" in="SourceGraphic" in2="effect1_dropShadow_7_161" result="shape"/>
</filter>
<filter id="filter30_d_7_161" x="183" y="252" width="10" height="11" filterUnits="userSpaceOnUse" color-interpolation-filters="sRGB">
<feFlood flood-opacity="0" result="BackgroundImageFix"/>
<feColorMatrix in="SourceAlpha" type="matrix" values="0 0 0 0 0 0 0 0 0 0 0 0 0 0 0 0 0 0 127 0" result="hardAlpha"/>
<feOffset dy="4"/>
<feGaussianBlur stdDeviation="2"/>
<feComposite in2="hardAlpha" operator="out"/>
<feColorMatrix type="matrix" values="0 0 0 0 0 0 0 0 0 0 0 0 0 0 0 0 0 0 0.25 0"/>
<feBlend mode="normal" in2="BackgroundImageFix" result="effect1_dropShadow_7_161"/>
<feBlend mode="normal" in="SourceGraphic" in2="effect1_dropShadow_7_161" result="shape"/>
</filter>
<filter id="filter31_d_7_161" x="166" y="260" width="9" height="10" filterUnits="userSpaceOnUse" color-interpolation-filters="sRGB">
<feFlood flood-opacity="0" result="BackgroundImageFix"/>
<feColorMatrix in="SourceAlpha" type="matrix" values="0 0 0 0 0 0 0 0 0 0 0 0 0 0 0 0 0 0 127 0" result="hardAlpha"/>
<feOffset dy="4"/>
<feGaussianBlur stdDeviation="2"/>
<feComposite in2="hardAlpha" operator="out"/>
<feColorMatrix type="matrix" values="0 0 0 0 0 0 0 0 0 0 0 0 0 0 0 0 0 0 0.25 0"/>
<feBlend mode="normal" in2="BackgroundImageFix" result="effect1_dropShadow_7_161"/>
<feBlend mode="normal" in="SourceGraphic" in2="effect1_dropShadow_7_161" result="shape"/>
</filter>
<filter id="filter32_d_7_161" x="169" y="260" width="10" height="10" filterUnits="userSpaceOnUse" color-interpolation-filters="sRGB">
<feFlood flood-opacity="0" result="BackgroundImageFix"/>
<feColorMatrix in="SourceAlpha" type="matrix" values="0 0 0 0 0 0 0 0 0 0 0 0 0 0 0 0 0 0 127 0" result="hardAlpha"/>
<feOffset dy="4"/>
<feGaussianBlur stdDeviation="2"/>
<feComposite in2="hardAlpha" operator="out"/>
<feColorMatrix type="matrix" values="0 0 0 0 0 0 0 0 0 0 0 0 0 0 0 0 0 0 0.25 0"/>
<feBlend mode="normal" in2="BackgroundImageFix" result="effect1_dropShadow_7_161"/>
<feBlend mode="normal" in="SourceGraphic" in2="effect1_dropShadow_7_161" result="shape"/>
</filter>
<filter id="filter33_d_7_161" x="171" y="258" width="11" height="11" filterUnits="userSpaceOnUse" color-interpolation-filters="sRGB">
<feFlood flood-opacity="0" result="BackgroundImageFix"/>
<feColorMatrix in="SourceAlpha" type="matrix" values="0 0 0 0 0 0 0 0 0 0 0 0 0 0 0 0 0 0 127 0" result="hardAlpha"/>
<feOffset dy="4"/>
<feGaussianBlur stdDeviation="2"/>
<feComposite in2="hardAlpha" operator="out"/>
<feColorMatrix type="matrix" values="0 0 0 0 0 0 0 0 0 0 0 0 0 0 0 0 0 0 0.25 0"/>
<feBlend mode="normal" in2="BackgroundImageFix" result="effect1_dropShadow_7_161"/>
<feBlend mode="normal" in="SourceGraphic" in2="effect1_dropShadow_7_161" result="shape"/>
</filter>
<filter id="filter34_d_7_161" x="175" y="257" width="9" height="11" filterUnits="userSpaceOnUse" color-interpolation-filters="sRGB">
<feFlood flood-opacity="0" result="BackgroundImageFix"/>
<feColorMatrix in="SourceAlpha" type="matrix" values="0 0 0 0 0 0 0 0 0 0 0 0 0 0 0 0 0 0 127 0" result="hardAlpha"/>
<feOffset dy="4"/>
<feGaussianBlur stdDeviation="2"/>
<feComposite in2="hardAlpha" operator="out"/>
<feColorMatrix type="matrix" values="0 0 0 0 0 0 0 0 0 0 0 0 0 0 0 0 0 0 0.25 0"/>
<feBlend mode="normal" in2="BackgroundImageFix" result="effect1_dropShadow_7_161"/>
<feBlend mode="normal" in="SourceGraphic" in2="effect1_dropShadow_7_161" result="shape"/>
</filter>
<filter id="filter35_d_7_161" x="178" y="257" width="10" height="10" filterUnits="userSpaceOnUse" color-interpolation-filters="sRGB">
<feFlood flood-opacity="0" result="BackgroundImageFix"/>
<feColorMatrix in="SourceAlpha" type="matrix" values="0 0 0 0 0 0 0 0 0 0 0 0 0 0 0 0 0 0 127 0" result="hardAlpha"/>
<feOffset dy="4"/>
<feGaussianBlur stdDeviation="2"/>
<feComposite in2="hardAlpha" operator="out"/>
<feColorMatrix type="matrix" values="0 0 0 0 0 0 0 0 0 0 0 0 0 0 0 0 0 0 0.25 0"/>
<feBlend mode="normal" in2="BackgroundImageFix" result="effect1_dropShadow_7_161"/>
<feBlend mode="normal" in="SourceGraphic" in2="effect1_dropShadow_7_161" result="shape"/>
</filter>
<filter id="filter36_d_7_161" x="181" y="255" width="10" height="11" filterUnits="userSpaceOnUse" color-interpolation-filters="sRGB">
<feFlood flood-opacity="0" result="BackgroundImageFix"/>
<feColorMatrix in="SourceAlpha" type="matrix" values="0 0 0 0 0 0 0 0 0 0 0 0 0 0 0 0 0 0 127 0" result="hardAlpha"/>
<feOffset dy="4"/>
<feGaussianBlur stdDeviation="2"/>
<feComposite in2="hardAlpha" operator="out"/>
<feColorMatrix type="matrix" values="0 0 0 0 0 0 0 0 0 0 0 0 0 0 0 0 0 0 0.25 0"/>
<feBlend mode="normal" in2="BackgroundImageFix" result="effect1_dropShadow_7_161"/>
<feBlend mode="normal" in="SourceGraphic" in2="effect1_dropShadow_7_161" result="shape"/>
</filter>
<filter id="filter37_d_7_161" x="184" y="255" width="10" height="10" filterUnits="userSpaceOnUse" color-interpolation-filters="sRGB">
<feFlood flood-opacity="0" result="BackgroundImageFix"/>
<feColorMatrix in="SourceAlpha" type="matrix" values="0 0 0 0 0 0 0 0 0 0 0 0 0 0 0 0 0 0 127 0" result="hardAlpha"/>
<feOffset dy="4"/>
<feGaussianBlur stdDeviation="2"/>
<feComposite in2="hardAlpha" operator="out"/>
<feColorMatrix type="matrix" values="0 0 0 0 0 0 0 0 0 0 0 0 0 0 0 0 0 0 0.25 0"/>
<feBlend mode="normal" in2="BackgroundImageFix" result="effect1_dropShadow_7_161"/>
<feBlend mode="normal" in="SourceGraphic" in2="effect1_dropShadow_7_161" result="shape"/>
</filter>
<filter id="filter38_d_7_161" x="126.728" y="211.53" width="57.7258" height="54.0393" filterUnits="userSpaceOnUse" color-interpolation-filters="sRGB">
<feFlood flood-opacity="0" result="BackgroundImageFix"/>
<feColorMatrix in="SourceAlpha" type="matrix" values="0 0 0 0 0 0 0 0 0 0 0 0 0 0 0 0 0 0 127 0" result="hardAlpha"/>
<feOffset dy="4"/>
<feGaussianBlur stdDeviation="2"/>
<feComposite in2="hardAlpha" operator="out"/>
<feColorMatrix type="matrix" values="0 0 0 0 0 0 0 0 0 0 0 0 0 0 0 0 0 0 0.25 0"/>
<feBlend mode="normal" in2="BackgroundImageFix" result="effect1_dropShadow_7_161"/>
<feBlend mode="normal" in="SourceGraphic" in2="effect1_dropShadow_7_161" result="shape"/>
</filter>
<filter id="filter39_d_7_161" x="95.4515" y="148.729" width="75.0173" height="44.8879" filterUnits="userSpaceOnUse" color-interpolation-filters="sRGB">
<feFlood flood-opacity="0" result="BackgroundImageFix"/>
<feColorMatrix in="SourceAlpha" type="matrix" values="0 0 0 0 0 0 0 0 0 0 0 0 0 0 0 0 0 0 127 0" result="hardAlpha"/>
<feOffset dy="4"/>
<feGaussianBlur stdDeviation="2"/>
<feComposite in2="hardAlpha" operator="out"/>
<feColorMatrix type="matrix" values="0 0 0 0 0 0 0 0 0 0 0 0 0 0 0 0 0 0 0.25 0"/>
<feBlend mode="normal" in2="BackgroundImageFix" result="effect1_dropShadow_7_161"/>
<feBlend mode="normal" in="SourceGraphic" in2="effect1_dropShadow_7_161" result="shape"/>
</filter>
<filter id="filter40_d_7_161" x="259" y="65" width="211" height="10" filterUnits="userSpaceOnUse" color-interpolation-filters="sRGB">
<feFlood flood-opacity="0" result="BackgroundImageFix"/>
<feColorMatrix in="SourceAlpha" type="matrix" values="0 0 0 0 0 0 0 0 0 0 0 0 0 0 0 0 0 0 127 0" result="hardAlpha"/>
<feOffset dy="4"/>
<feGaussianBlur stdDeviation="2"/>
<feComposite in2="hardAlpha" operator="out"/>
<feColorMatrix type="matrix" values="0 0 0 0 0 0 0 0 0 0 0 0 0 0 0 0 0 0 0.25 0"/>
<feBlend mode="normal" in2="BackgroundImageFix" result="effect1_dropShadow_7_161"/>
<feBlend mode="normal" in="SourceGraphic" in2="effect1_dropShadow_7_161" result="shape"/>
</filter>
<filter id="filter41_d_7_161" x="269" y="52" width="17" height="17" filterUnits="userSpaceOnUse" color-interpolation-filters="sRGB">
<feFlood flood-opacity="0" result="BackgroundImageFix"/>
<feColorMatrix in="SourceAlpha" type="matrix" values="0 0 0 0 0 0 0 0 0 0 0 0 0 0 0 0 0 0 127 0" result="hardAlpha"/>
<feOffset dy="4"/>
<feGaussianBlur stdDeviation="2"/>
<feComposite in2="hardAlpha" operator="out"/>
<feColorMatrix type="matrix" values="0 0 0 0 0 0 0 0 0 0 0 0 0 0 0 0 0 0 0.25 0"/>
<feBlend mode="normal" in2="BackgroundImageFix" result="effect1_dropShadow_7_161"/>
<feBlend mode="normal" in="SourceGraphic" in2="effect1_dropShadow_7_161" result="shape"/>
</filter>
<filter id="filter42_d_7_161" x="286" y="52" width="17" height="17" filterUnits="userSpaceOnUse" color-interpolation-filters="sRGB">
<feFlood flood-opacity="0" result="BackgroundImageFix"/>
<feColorMatrix in="SourceAlpha" type="matrix" values="0 0 0 0 0 0 0 0 0 0 0 0 0 0 0 0 0 0 127 0" result="hardAlpha"/>
<feOffset dy="4"/>
<feGaussianBlur stdDeviation="2"/>
<feComposite in2="hardAlpha" operator="out"/>
<feColorMatrix type="matrix" values="0 0 0 0 0 0 0 0 0 0 0 0 0 0 0 0 0 0 0.25 0"/>
<feBlend mode="normal" in2="BackgroundImageFix" result="effect1_dropShadow_7_161"/>
<feBlend mode="normal" in="SourceGraphic" in2="effect1_dropShadow_7_161" result="shape"/>
</filter>
<filter id="filter43_d_7_161" x="301" y="52" width="18" height="17" filterUnits="userSpaceOnUse" color-interpolation-filters="sRGB">
<feFlood flood-opacity="0" result="BackgroundImageFix"/>
<feColorMatrix in="SourceAlpha" type="matrix" values="0 0 0 0 0 0 0 0 0 0 0 0 0 0 0 0 0 0 127 0" result="hardAlpha"/>
<feOffset dy="4"/>
<feGaussianBlur stdDeviation="2"/>
<feComposite in2="hardAlpha" operator="out"/>
<feColorMatrix type="matrix" values="0 0 0 0 0 0 0 0 0 0 0 0 0 0 0 0 0 0 0.25 0"/>
<feBlend mode="normal" in2="BackgroundImageFix" result="effect1_dropShadow_7_161"/>
<feBlend mode="normal" in="SourceGraphic" in2="effect1_dropShadow_7_161" result="shape"/>
</filter>
<filter id="filter44_d_7_161" x="439" y="53" width="22" height="10" filterUnits="userSpaceOnUse" color-interpolation-filters="sRGB">
<feFlood flood-opacity="0" result="BackgroundImageFix"/>
<feColorMatrix in="SourceAlpha" type="matrix" values="0 0 0 0 0 0 0 0 0 0 0 0 0 0 0 0 0 0 127 0" result="hardAlpha"/>
<feOffset dy="4"/>
<feGaussianBlur stdDeviation="2"/>
<feComposite in2="hardAlpha" operator="out"/>
<feColorMatrix type="matrix" values="0 0 0 0 0 0 0 0 0 0 0 0 0 0 0 0 0 0 0.25 0"/>
<feBlend mode="normal" in2="BackgroundImageFix" result="effect1_dropShadow_7_161"/>
<feBlend mode="normal" in="SourceGraphic" in2="effect1_dropShadow_7_161" result="shape"/>
</filter>
<filter id="filter45_d_7_161" x="439" y="56" width="22" height="10" filterUnits="userSpaceOnUse" color-interpolation-filters="sRGB">
<feFlood flood-opacity="0" result="BackgroundImageFix"/>
<feColorMatrix in="SourceAlpha" type="matrix" values="0 0 0 0 0 0 0 0 0 0 0 0 0 0 0 0 0 0 127 0" result="hardAlpha"/>
<feOffset dy="4"/>
<feGaussianBlur stdDeviation="2"/>
<feComposite in2="hardAlpha" operator="out"/>
<feColorMatrix type="matrix" values="0 0 0 0 0 0 0 0 0 0 0 0 0 0 0 0 0 0 0.25 0"/>
<feBlend mode="normal" in2="BackgroundImageFix" result="effect1_dropShadow_7_161"/>
<feBlend mode="normal" in="SourceGraphic" in2="effect1_dropShadow_7_161" result="shape"/>
</filter>
<filter id="filter46_d_7_161" x="439" y="61" width="22" height="11" filterUnits="userSpaceOnUse" color-interpolation-filters="sRGB">
<feFlood flood-opacity="0" result="BackgroundImageFix"/>
<feColorMatrix in="SourceAlpha" type="matrix" values="0 0 0 0 0 0 0 0 0 0 0 0 0 0 0 0 0 0 127 0" result="hardAlpha"/>
<feOffset dy="4"/>
<feGaussianBlur stdDeviation="2"/>
<feComposite in2="hardAlpha" operator="out"/>
<feColorMatrix type="matrix" values="0 0 0 0 0 0 0 0 0 0 0 0 0 0 0 0 0 0 0.25 0"/>
<feBlend mode="normal" in2="BackgroundImageFix" result="effect1_dropShadow_7_161"/>
<feBlend mode="normal" in="SourceGraphic" in2="effect1_dropShadow_7_161" result="shape"/>
</filter>
<filter id="filter47_d_7_161" x="379.282" y="86.4148" width="64.4684" height="33.2319" filterUnits="userSpaceOnUse" color-interpolation-filters="sRGB">
<feFlood flood-opacity="0" result="BackgroundImageFix"/>
<feColorMatrix in="SourceAlpha" type="matrix" values="0 0 0 0 0 0 0 0 0 0 0 0 0 0 0 0 0 0 127 0" result="hardAlpha"/>
<feOffset dy="4"/>
<feGaussianBlur stdDeviation="2"/>
<feComposite in2="hardAlpha" operator="out"/>
<feColorMatrix type="matrix" values="0 0 0 0 0 0 0 0 0 0 0 0 0 0 0 0 0 0 0.25 0"/>
<feBlend mode="normal" in2="BackgroundImageFix" result="effect1_dropShadow_7_161"/>
<feBlend mode="normal" in="SourceGraphic" in2="effect1_dropShadow_7_161" result="shape"/>
</filter>
<filter id="filter48_d_7_161" x="379.285" y="176.105" width="64.4629" height="33.2319" filterUnits="userSpaceOnUse" color-interpolation-filters="sRGB">
<feFlood flood-opacity="0" result="BackgroundImageFix"/>
<feColorMatrix in="SourceAlpha" type="matrix" values="0 0 0 0 0 0 0 0 0 0 0 0 0 0 0 0 0 0 127 0" result="hardAlpha"/>
<feOffset dy="4"/>
<feGaussianBlur stdDeviation="2"/>
<feComposite in2="hardAlpha" operator="out"/>
<feColorMatrix type="matrix" values="0 0 0 0 0 0 0 0 0 0 0 0 0 0 0 0 0 0 0.25 0"/>
<feBlend mode="normal" in2="BackgroundImageFix" result="effect1_dropShadow_7_161"/>
<feBlend mode="normal" in="SourceGraphic" in2="effect1_dropShadow_7_161" result="shape"/>
</filter>
<filter id="filter49_d_7_161" x="285.854" y="162.494" width="64.463" height="33.2319" filterUnits="userSpaceOnUse" color-interpolation-filters="sRGB">
<feFlood flood-opacity="0" result="BackgroundImageFix"/>
<feColorMatrix in="SourceAlpha" type="matrix" values="0 0 0 0 0 0 0 0 0 0 0 0 0 0 0 0 0 0 127 0" result="hardAlpha"/>
<feOffset dy="4"/>
<feGaussianBlur stdDeviation="2"/>
<feComposite in2="hardAlpha" operator="out"/>
<feColorMatrix type="matrix" values="0 0 0 0 0 0 0 0 0 0 0 0 0 0 0 0 0 0 0.25 0"/>
<feBlend mode="normal" in2="BackgroundImageFix" result="effect1_dropShadow_7_161"/>
<feBlend mode="normal" in="SourceGraphic" in2="effect1_dropShadow_7_161" result="shape"/>
</filter>
<filter id="filter50_d_7_161" x="379.285" y="127.879" width="64.4629" height="39.9934" filterUnits="userSpaceOnUse" color-interpolation-filters="sRGB">
<feFlood flood-opacity="0" result="BackgroundImageFix"/>
<feColorMatrix in="SourceAlpha" type="matrix" values="0 0 0 0 0 0 0 0 0 0 0 0 0 0 0 0 0 0 127 0" result="hardAlpha"/>
<feOffset dy="4"/>
<feGaussianBlur stdDeviation="2"/>
<feComposite in2="hardAlpha" operator="out"/>
<feColorMatrix type="matrix" values="0 0 0 0 0 0 0 0 0 0 0 0 0 0 0 0 0 0 0.25 0"/>
<feBlend mode="normal" in2="BackgroundImageFix" result="effect1_dropShadow_7_161"/>
<feBlend mode="normal" in="SourceGraphic" in2="effect1_dropShadow_7_161" result="shape"/>
</filter>
<filter id="filter51_d_7_161" x="286" y="95" width="54" height="71" filterUnits="userSpaceOnUse" color-interpolation-filters="sRGB">
<feFlood flood-opacity="0" result="BackgroundImageFix"/>
<feColorMatrix in="SourceAlpha" type="matrix" values="0 0 0 0 0 0 0 0 0 0 0 0 0 0 0 0 0 0 127 0" result="hardAlpha"/>
<feOffset dy="4"/>
<feGaussianBlur stdDeviation="2"/>
<feComposite in2="hardAlpha" operator="out"/>
<feColorMatrix type="matrix" values="0 0 0 0 0 0 0 0 0 0 0 0 0 0 0 0 0 0 0.25 0"/>
<feBlend mode="normal" in2="BackgroundImageFix" result="effect1_dropShadow_7_161"/>
<feBlend mode="normal" in="SourceGraphic" in2="effect1_dropShadow_7_161" result="shape"/>
</filter>
<filter id="filter52_d_7_161" x="286" y="95" width="54" height="71" filterUnits="userSpaceOnUse" color-interpolation-filters="sRGB">
<feFlood flood-opacity="0" result="BackgroundImageFix"/>
<feColorMatrix in="SourceAlpha" type="matrix" values="0 0 0 0 0 0 0 0 0 0 0 0 0 0 0 0 0 0 127 0" result="hardAlpha"/>
<feOffset dy="4"/>
<feGaussianBlur stdDeviation="2"/>
<feComposite in2="hardAlpha" operator="out"/>
<feColorMatrix type="matrix" values="0 0 0 0 0 0 0 0 0 0 0 0 0 0 0 0 0 0 0.25 0"/>
<feBlend mode="normal" in2="BackgroundImageFix" result="effect1_dropShadow_7_161"/>
<feBlend mode="normal" in="SourceGraphic" in2="effect1_dropShadow_7_161" result="shape"/>
</filter>
<filter id="filter53_d_7_161" x="291" y="86" width="48" height="80" filterUnits="userSpaceOnUse" color-interpolation-filters="sRGB">
<feFlood flood-opacity="0" result="BackgroundImageFix"/>
<feColorMatrix in="SourceAlpha" type="matrix" values="0 0 0 0 0 0 0 0 0 0 0 0 0 0 0 0 0 0 127 0" result="hardAlpha"/>
<feOffset dy="4"/>
<feGaussianBlur stdDeviation="2"/>
<feComposite in2="hardAlpha" operator="out"/>
<feColorMatrix type="matrix" values="0 0 0 0 0 0 0 0 0 0 0 0 0 0 0 0 0 0 0.25 0"/>
<feBlend mode="normal" in2="BackgroundImageFix" result="effect1_dropShadow_7_161"/>
<feBlend mode="normal" in="SourceGraphic" in2="effect1_dropShadow_7_161" result="shape"/>
</filter>
</defs>
</svg>
