<svg width="391" height="311" viewBox="0 0 391 311" fill="none" xmlns="http://www.w3.org/2000/svg">
<g id="the-code-svg">
<g id="Vector" filter="url(#filter0_d_12_79)">
<path d="M49.8794 225.807C49.5462 225.822 49.2165 225.737 48.9347 225.564C48.6529 225.391 48.4328 225.138 48.3042 224.839C48.1755 224.541 48.1446 224.211 48.2155 223.895C48.2864 223.578 48.4558 223.291 48.7006 223.071C48.7417 222.913 48.7711 222.799 48.8121 222.641C48.7974 222.607 48.7827 222.572 48.7678 222.538C48.4322 221.768 47.8698 221.112 47.1514 220.652C46.4329 220.192 45.5903 219.948 44.7295 219.951C43.8687 219.954 43.0281 220.204 42.3131 220.67C41.5982 221.135 41.0409 221.795 40.7112 222.567C39.3935 225.647 37.7158 228.733 37.3027 231.99C37.1208 233.43 37.1975 234.889 37.5295 236.304C34.4346 229.751 32.8275 222.628 32.8172 215.42C32.8165 213.611 32.9201 211.803 33.1273 210.005C33.2986 208.532 33.5362 207.068 33.8402 205.616C35.499 197.733 39.0606 190.345 44.2324 184.058C46.7355 182.732 48.7598 180.693 50.0325 178.217C50.4936 177.326 50.8195 176.376 51 175.395C50.7176 175.431 50.4306 175.453 50.1483 175.471C50.0603 175.476 49.9677 175.48 49.8798 175.485L49.8466 175.486C49.5363 175.5 49.2285 175.426 48.9604 175.274C48.6923 175.121 48.4753 174.897 48.3354 174.628C48.1956 174.358 48.1389 174.056 48.1722 173.756C48.2055 173.456 48.3274 173.172 48.5232 172.938C48.6451 172.792 48.7671 172.647 48.8891 172.501C49.0743 172.277 49.2641 172.056 49.4492 171.832C49.4706 171.81 49.4907 171.788 49.5094 171.764C49.7224 171.508 49.9353 171.257 50.1482 171.001C49.7596 170.415 49.2368 169.924 48.6207 169.567C46.4867 168.354 43.5426 169.194 42.0011 171.068C40.455 172.942 40.1634 175.57 40.7004 177.911C41.2284 179.903 42.1019 181.793 43.2834 183.5C43.1676 183.644 43.0473 183.783 42.9316 183.927C40.8161 186.568 38.9723 189.403 37.4266 192.392C37.8025 189.043 37.3539 185.655 36.1176 182.507C34.8647 179.574 32.5163 177.103 30.4483 174.567C27.9642 171.52 22.8704 172.85 22.4327 176.711C22.4285 176.749 22.4244 176.786 22.4203 176.824C22.7275 176.992 23.0282 177.17 23.3224 177.359C23.692 177.599 23.9784 177.941 24.144 178.342C24.3097 178.742 24.3468 179.182 24.2507 179.603C24.1546 180.024 23.9296 180.407 23.6052 180.702C23.2808 180.997 22.8722 181.19 22.4329 181.256L22.388 181.263C22.4974 182.337 22.6908 183.402 22.9666 184.448C23.7656 187.369 25.1776 190.098 27.1141 192.463C29.0505 194.829 31.4696 196.782 34.2197 198.197C34.4003 198.287 34.5762 198.377 34.7567 198.463C33.2038 202.734 32.2297 207.184 31.8589 211.699C31.6491 214.363 31.6614 217.039 31.896 219.702L31.8821 219.607C31.2895 216.647 29.6626 213.976 27.2762 212.045C23.7317 209.219 18.724 208.178 14.9001 205.907C14.4937 205.653 14.0212 205.518 13.5383 205.517C13.0553 205.516 12.5821 205.649 12.1745 205.9C11.7668 206.152 11.4417 206.511 11.2375 206.936C11.0333 207.36 10.9585 207.833 11.0219 208.298C11.0271 208.331 11.0323 208.364 11.0376 208.397C11.6076 208.622 12.1626 208.882 12.6994 209.174C13.0066 209.342 13.3072 209.521 13.6014 209.71C13.971 209.949 14.2574 210.292 14.4231 210.692C14.5887 211.093 14.6259 211.532 14.5297 211.953C14.4336 212.375 14.2086 212.758 13.8843 213.053C13.5599 213.348 13.1513 213.541 12.712 213.607L12.667 213.613C12.6346 213.618 12.6068 213.622 12.5744 213.627C13.5484 215.884 14.9154 217.962 16.6156 219.769C18.7158 221.956 21.2543 223.704 24.0752 224.906C26.8962 226.107 29.9403 226.737 33.0208 226.756H33.0255C33.8617 230.283 35.0733 233.716 36.6408 237H49.5557C49.602 236.861 49.6437 236.717 49.6854 236.578C48.4899 236.651 47.2898 236.581 46.1117 236.371C47.0699 235.23 48.0281 234.079 48.9864 232.938C49.0077 232.917 49.0278 232.894 49.0465 232.871C49.5326 232.287 50.0233 231.707 50.5093 231.123L50.5096 231.122C50.5355 229.332 50.3238 227.546 49.8798 225.808L49.8794 225.807Z" fill="#F2F2F2"/>
</g>
<g id="right-hand" filter="url(#filter1_d_12_79)">
<path id="Vector_2" d="M105.393 170.407C104.663 170.234 103.903 170.222 103.167 170.371C102.431 170.52 101.738 170.827 101.135 171.27C100.532 171.714 100.034 172.282 99.6775 172.937C99.3206 173.591 99.113 174.314 99.0692 175.056L87.982 178.876L88.6835 186.111L104.264 180.5C105.529 180.49 106.746 180.021 107.684 179.183C108.623 178.344 109.218 177.194 109.357 175.95C109.497 174.706 109.17 173.455 108.439 172.433C107.709 171.412 106.625 170.691 105.393 170.407V170.407Z" fill="#FFB6B6"/>
<path id="Vector_3" d="M87.3238 191.437C82.9153 194.479 75.1486 196.035 64.5783 195.963C63.9931 195.965 63.4139 195.846 62.8775 195.615C62.3411 195.383 61.859 195.044 61.462 194.618C58.6336 191.703 58.7441 185.048 58.7617 184.405L55.6616 172.841C55.5951 172.664 53.8792 167.919 55.6249 164.605C55.9964 163.913 56.5148 163.309 57.1445 162.834C57.7743 162.359 58.5004 162.024 59.2731 161.853C65.8293 160.131 71.9923 177.502 72.7754 179.798L81.976 178.247L88.3299 177.988L94.7943 174.456L98.4339 183.078L89.4269 189.594C88.8055 190.292 88.0991 190.911 87.3238 191.437V191.437Z" fill="#2F2E41"/>
</g>
<g id="Vector_4" filter="url(#filter2_d_12_79)">
<path d="M175.525 231L178 224.965L154.747 213L143 220.034L175.525 231Z" fill="#FFB6B6"/>
</g>
<g id="Vector_5" filter="url(#filter3_d_12_79)">
<path d="M172 232.188L175.406 222.47L179.813 224.06L190.39 217.467C190.912 217.142 191.533 216.979 192.163 217.002C192.793 217.026 193.398 217.234 193.89 217.598C194.383 217.961 194.736 218.46 194.899 219.022C195.062 219.584 195.027 220.18 194.797 220.722L190.012 232.028L184.827 232.404L188.865 234.737L187.06 239L172 232.188Z" fill="#2F2E41"/>
</g>
<g id="Vector_6" filter="url(#filter4_d_12_79)">
<path d="M42 213.138C42 213.138 44.822 231.448 58.162 232.804C71.5019 234.159 83.7985 228.051 83.7985 228.051L121.15 216.36C121.15 216.36 160.88 227.832 167.55 229.64C167.55 229.64 172.15 219.027 171.996 218.342C170.578 212.034 168.73 216.301 168.73 216.301L126.486 197.32C126.486 197.32 119.816 195.513 108.255 200.484C96.6938 205.455 65.7213 217.438 65.7213 217.438L42 213.138Z" fill="#2F2E41"/>
</g>
<g id="right-leg" filter="url(#filter5_d_12_79)">
<path id="Vector_7" d="M121.881 289.183L128.358 287.183L123.648 261.503L114.089 264.455L121.881 289.183Z" fill="#FFB6B6"/>
<path id="Vector_8" d="M119.742 287.261L129.79 283.495L131.158 287.837L142.989 291.486C143.574 291.667 144.085 292.027 144.447 292.515C144.81 293.003 145.006 293.593 145.006 294.199C145.006 294.804 144.811 295.394 144.448 295.882C144.085 296.37 143.575 296.731 142.99 296.911L130.801 300.675L127.346 297.028L127.879 301.576L123.283 302.995L119.742 287.261Z" fill="#2F2E41"/>
<path id="Vector_9" d="M42.7078 211.675C42.7078 211.675 40.4889 232.983 53.4498 236.238C65.7702 239.332 82.7648 236.158 82.7648 236.158L103.025 234.064C103.025 234.064 115.031 259.832 115.031 272.563C119.148 273.116 121.648 272.532 125.802 272.563C125.802 268.751 125.802 268.751 125.802 268.751V252.069L118.994 228.447C119.114 226.51 118.824 224.571 118.142 222.752C117.459 220.934 116.4 219.277 115.031 217.888C113.663 216.499 112.016 215.409 110.197 214.688C108.377 213.968 106.425 213.632 104.467 213.703C103.51 213.739 102.507 213.806 101.457 213.904C88.9934 215.087 73.5202 212.572 73.5202 212.572L42.7078 211.675Z" fill="#2F2E41"/>
</g>
<g id="Vector_10" filter="url(#filter6_d_12_79)">
<path d="M78.2781 182C78.2781 182 83.1502 212.173 79.8577 214.582C76.5651 216.991 72.0499 217 72.0499 217L71 200.34L78.2781 182Z" fill="#2F2E41"/>
</g>
<g id="Vector_11" filter="url(#filter7_d_12_79)">
<path d="M70 142L76.7811 148.728C79.933 151.855 82.0222 155.97 82.7319 160.449C83.4416 164.927 82.7332 169.526 80.7139 173.546L77.4724 180L70 142Z" fill="#2F2E41"/>
</g>
<g id="Vector_12" filter="url(#filter8_d_12_79)">
<path d="M67.9933 144L77.3023 154.797C79.3453 157.167 80.6114 160.127 80.924 163.264V163.264C81.0659 164.688 81.0089 166.126 80.7545 167.534L77.2463 186.955L74.6094 215C74.6094 215 54.2523 221.281 52.1687 211.582C50.085 201.883 67.9933 144 67.9933 144Z" fill="#2BA8FD" fill-opacity="0.79" shape-rendering="crispEdges"/>
</g>
<g id="Vector_13" filter="url(#filter9_d_12_79)">
<path d="M59.2454 216.754C45.725 214.507 42.413 214.061 42.2067 213.982L42 213.904L43.3552 205.795L49.0777 191.775C49.4493 187.188 51.8597 180.974 50.4808 175.983C46.4722 161.473 52.9849 140.968 55.9632 139.397L64.2199 134L67.1182 136.65L72.1436 143.664C76.2783 162.029 79.134 179.146 78.9951 180.192L76.4432 198.171L73.4361 205.067C64.3136 209.456 70.4479 218.615 59.2454 216.754Z" fill="#2F2E41"/>
</g>
<g id="Vector_14" filter="url(#filter10_d_12_79)">
<path d="M83.7034 203.377L105.748 197.244L107.689 196.765L109.073 196.423L110.686 196.027L110.698 196.024C110.933 195.968 111.179 196.011 111.383 196.142L119.568 206.347C119.642 206.394 119.708 206.455 119.761 206.527C119.783 206.545 119.803 206.567 119.819 206.59C119.91 206.719 119.969 206.868 119.99 207.026C120.012 207.184 119.997 207.345 119.944 207.494C119.892 207.644 119.806 207.779 119.692 207.885C119.578 207.992 119.441 208.068 119.293 208.107L86.4071 215.976C86.2367 216.016 86.0589 216.006 85.8941 215.945C85.7294 215.885 85.5844 215.777 85.476 215.634L85.1423 215.185L83.3225 206.073L83.193 204.889C83.1104 204.78 83.0522 204.653 83.0224 204.517C82.9695 204.272 83.0112 204.015 83.1386 203.802C83.2659 203.589 83.4688 203.436 83.7034 203.377V203.377Z" fill="#E6E6E6"/>
</g>
<g id="Vector_15" opacity="0.17" filter="url(#filter11_d_12_79)">
<path d="M86 215.224L86.3274 215.653C86.4329 215.788 86.5739 215.89 86.7342 215.948C86.8944 216.005 87.0674 216.016 87.2333 215.978L119.31 208.501C119.455 208.464 119.589 208.392 119.7 208.29C119.811 208.189 119.895 208.062 119.946 207.919C119.997 207.777 120.012 207.624 119.991 207.474C119.969 207.325 119.912 207.183 119.823 207.061C119.808 207.038 119.789 207.017 119.767 207L86 215.224Z" fill="black"/>
</g>
<g id="Vector_16" filter="url(#filter12_d_12_79)">
<path d="M110.602 197.283L110.005 157.021C109.98 156.779 110.056 156.537 110.218 156.349L114.447 147.926L114.886 147.415C115.049 147.229 115.283 147.111 115.536 147.087L116.457 147.004C116.71 146.981 116.963 147.054 117.16 147.209C117.357 147.363 117.482 147.587 117.507 147.829V147.829L118.336 190.429L118.336 190.433L118.747 194.534L119.234 199.405L119.235 199.411L119.995 206.989C120.009 207.119 119.994 207.25 119.95 207.373C119.906 207.497 119.835 207.609 119.741 207.704C119.649 207.799 119.537 207.875 119.413 207.926C119.288 207.977 119.154 208.002 119.018 208L118.419 207.988C118.19 207.983 117.969 207.899 117.797 207.754L117.462 207.466L117.307 207.33L110.919 197.881C110.738 197.728 110.624 197.514 110.602 197.283V197.283Z" fill="#E6E6E6"/>
</g>
<g id="Vector_17" opacity="0.17" filter="url(#filter13_d_12_79)">
<path d="M114 147.928L117.089 207.333L117.258 207.466L117.619 207.753C117.805 207.9 118.043 207.983 118.292 207.988L118.94 208C119.087 208.002 119.232 207.977 119.367 207.926C119.502 207.875 119.623 207.799 119.723 207.704C119.822 207.609 119.898 207.496 119.945 207.373C119.992 207.25 120.009 207.119 119.995 206.99L117.304 147.832C117.278 147.589 117.144 147.366 116.931 147.21C116.719 147.055 116.445 146.981 116.171 147.004L115.174 147.089C115.039 147.1 114.907 147.135 114.787 147.191C114.667 147.248 114.561 147.325 114.475 147.418L114 147.928Z" fill="black"/>
</g>
<g id="Vector_18" filter="url(#filter14_d_12_79)">
<path d="M114.316 149L111 158.296L111.41 186.104L115 192L114.316 149Z" fill="#2BA8FD" fill-opacity="0.79" shape-rendering="crispEdges"/>
</g>
<g id="Vector_19" filter="url(#filter15_d_12_79)">
<path d="M86.7234 203.031C86.4693 203.09 86.2544 203.229 86.1259 203.418C85.9973 203.607 85.9657 203.829 86.038 204.037L88.0834 211L90 210.554L87.9546 203.591C87.8821 203.383 87.7117 203.208 87.4809 203.103C87.25 202.998 86.9775 202.972 86.7234 203.031V203.031Z" fill="#2F2E41"/>
</g>
<g id="Vector_20" filter="url(#filter16_d_12_79)">
<path d="M90.3025 203.027C90.1963 203.079 90.1064 203.2 90.0526 203.365C89.9989 203.53 89.9857 203.724 90.0159 203.906L90.1985 205L91 204.611L90.8174 203.516C90.7871 203.335 90.7159 203.182 90.6193 203.09C90.5228 202.998 90.4088 202.976 90.3025 203.027Z" fill="#2F2E41"/>
</g>
<g id="Vector_21" filter="url(#filter17_d_12_79)">
<path d="M92.6051 202.014C92.3925 202.039 92.2128 202.1 92.1053 202.183C91.9978 202.265 91.9713 202.362 92.0318 202.453L92.397 203L94 202.805L93.6348 202.258C93.5742 202.167 93.4317 202.091 93.2386 202.045C93.0455 201.999 92.8176 201.988 92.6051 202.014V202.014Z" fill="#2F2E41"/>
</g>
<g id="Vector_22" filter="url(#filter18_d_12_79)">
<path d="M96.3025 201.027C96.1963 201.079 96.1064 201.2 96.0526 201.365C95.9989 201.53 95.9857 201.724 96.0159 201.906L96.1985 203L97 202.611L96.8174 201.516C96.7871 201.335 96.7159 201.182 96.6193 201.09C96.5228 200.998 96.4088 200.976 96.3025 201.027V201.027Z" fill="#2F2E41"/>
</g>
<g id="Vector_23" filter="url(#filter19_d_12_79)">
<path d="M98.9076 200.041C98.5888 200.118 98.3192 200.301 98.1579 200.548C97.9967 200.795 97.957 201.087 98.0477 201.359L98.5954 203L101 202.416L100.452 200.774C100.361 200.502 100.148 200.272 99.8579 200.135C99.5683 199.997 99.2265 199.963 98.9076 200.041V200.041Z" fill="#2F2E41"/>
</g>
<g id="Vector_24" filter="url(#filter20_d_12_79)">
<path d="M101.908 199.027C101.589 199.079 101.319 199.2 101.158 199.365C100.997 199.53 100.957 199.724 101.048 199.906L101.595 201L104 200.611L103.452 199.516C103.361 199.335 103.148 199.182 102.858 199.09C102.568 198.998 102.226 198.976 101.908 199.027Z" fill="#2F2E41"/>
</g>
<g id="Vector_25" filter="url(#filter21_d_12_79)">
<path d="M105.303 198.041C105.196 198.118 105.106 198.301 105.053 198.548C104.999 198.795 104.986 199.087 105.016 199.359L105.198 201L106 200.416L105.817 198.774C105.787 198.502 105.716 198.272 105.619 198.135C105.523 197.997 105.409 197.963 105.303 198.041V198.041Z" fill="#2F2E41"/>
</g>
<g id="Vector_26" filter="url(#filter22_d_12_79)">
<path d="M108.605 197.041C108.393 197.118 108.213 197.301 108.105 197.548C107.998 197.795 107.971 198.087 108.032 198.359L108.397 200L110 199.416L109.635 197.774C109.574 197.502 109.432 197.272 109.239 197.135C109.046 196.997 108.818 196.963 108.605 197.041V197.041Z" fill="#2F2E41"/>
</g>
<g id="Vector_27" filter="url(#filter23_d_12_79)">
<path d="M90.3025 205.041C90.1963 205.118 90.1064 205.301 90.0526 205.548C89.9989 205.795 89.9857 206.087 90.0159 206.359L90.1985 208L91 207.416L90.8174 205.774C90.7871 205.502 90.7159 205.272 90.6193 205.135C90.5228 204.997 90.4088 204.963 90.3025 205.041V205.041Z" fill="#2F2E41"/>
</g>
<g id="Vector_28" filter="url(#filter24_d_12_79)">
<path d="M93.6051 204.041C93.3926 204.118 93.2128 204.301 93.1053 204.548C92.9978 204.795 92.9713 205.087 93.0318 205.359L93.397 207L95 206.416L94.6348 204.774C94.5742 204.502 94.4317 204.272 94.2386 204.135C94.0455 203.997 93.8177 203.963 93.6051 204.041Z" fill="#2F2E41"/>
</g>
<g id="Vector_29" filter="url(#filter25_d_12_79)">
<path d="M96.6051 203.027C96.3926 203.079 96.2128 203.2 96.1053 203.365C95.9978 203.53 95.9713 203.724 96.0318 203.906L96.397 205L98 204.611L97.6348 203.516C97.5742 203.335 97.4317 203.182 97.2386 203.09C97.0455 202.998 96.8177 202.976 96.6051 203.027Z" fill="#2F2E41"/>
</g>
<g id="Vector_30" filter="url(#filter26_d_12_79)">
<path d="M100.303 203.027C100.196 203.079 100.106 203.2 100.053 203.365C99.9989 203.53 99.9857 203.724 100.016 203.906L100.198 205L101 204.611L100.817 203.516C100.787 203.335 100.716 203.182 100.619 203.09C100.523 202.998 100.409 202.976 100.303 203.027Z" fill="#2F2E41"/>
</g>
<g id="Vector_31" filter="url(#filter27_d_12_79)">
<path d="M102.605 202.027C102.393 202.079 102.213 202.2 102.105 202.365C101.998 202.53 101.971 202.724 102.032 202.906L102.397 204L104 203.611L103.635 202.516C103.574 202.335 103.432 202.182 103.239 202.09C103.046 201.998 102.818 201.976 102.605 202.027V202.027Z" fill="#2F2E41"/>
</g>
<g id="Vector_32" filter="url(#filter28_d_12_79)">
<path d="M106.303 201.027C106.196 201.079 106.106 201.2 106.053 201.365C105.999 201.53 105.986 201.724 106.016 201.906L106.198 203L107 202.611L106.817 201.516C106.787 201.335 106.716 201.182 106.619 201.09C106.523 200.998 106.409 200.976 106.303 201.027V201.027Z" fill="#2F2E41"/>
</g>
<g id="Vector_33" filter="url(#filter29_d_12_79)">
<path d="M108.605 200.041C108.393 200.118 108.213 200.301 108.105 200.548C107.998 200.795 107.971 201.087 108.032 201.359L108.397 203L110 202.416L109.635 200.774C109.574 200.502 109.432 200.272 109.239 200.135C109.046 199.997 108.818 199.963 108.605 200.041Z" fill="#2F2E41"/>
</g>
<g id="Vector_34" filter="url(#filter30_d_12_79)">
<path d="M91.3025 208.027C91.1963 208.079 91.1064 208.2 91.0526 208.365C90.9989 208.53 90.9857 208.724 91.0159 208.906L91.1985 210L92 209.611L91.8174 208.516C91.7871 208.335 91.7159 208.182 91.6193 208.09C91.5228 207.998 91.4088 207.976 91.3025 208.027V208.027Z" fill="#2F2E41"/>
</g>
<g id="Vector_35" filter="url(#filter31_d_12_79)">
<path d="M94.6051 208.027C94.3925 208.079 94.2128 208.2 94.1053 208.365C93.9978 208.53 93.9713 208.724 94.0318 208.906L94.3969 210L96 209.611L95.6348 208.516C95.5742 208.335 95.4317 208.182 95.2386 208.09C95.0455 207.998 94.8176 207.976 94.6051 208.027V208.027Z" fill="#2F2E41"/>
</g>
<g id="Vector_36" filter="url(#filter32_d_12_79)">
<path d="M96.9076 206.041C96.5888 206.118 96.3192 206.301 96.1579 206.548C95.9967 206.795 95.957 207.087 96.0477 207.359L96.5954 209L99 208.416L98.4522 206.774C98.3613 206.502 98.1476 206.272 97.8579 206.135C97.5683 205.997 97.2265 205.963 96.9076 206.041Z" fill="#2F2E41"/>
</g>
<g id="Vector_37" filter="url(#filter33_d_12_79)">
<path d="M100.303 205.041C100.196 205.118 100.106 205.301 100.053 205.548C99.9989 205.795 99.9857 206.087 100.016 206.359L100.198 208L101 207.416L100.817 205.774C100.787 205.502 100.716 205.272 100.619 205.135C100.523 204.997 100.409 204.963 100.303 205.041Z" fill="#2F2E41"/>
</g>
<g id="Vector_38" filter="url(#filter34_d_12_79)">
<path d="M103.605 205.027C103.393 205.079 103.213 205.2 103.105 205.365C102.998 205.53 102.971 205.724 103.032 205.906L103.397 207L105 206.611L104.635 205.516C104.574 205.335 104.432 205.182 104.239 205.09C104.046 204.998 103.818 204.976 103.605 205.027V205.027Z" fill="#2F2E41"/>
</g>
<g id="Vector_39" filter="url(#filter35_d_12_79)">
<path d="M106.605 203.041C106.393 203.118 106.213 203.301 106.105 203.548C105.998 203.795 105.971 204.087 106.032 204.359L106.397 206L108 205.416L107.635 203.774C107.574 203.502 107.432 203.272 107.239 203.135C107.046 202.997 106.818 202.963 106.605 203.041Z" fill="#2F2E41"/>
</g>
<g id="Vector_40" filter="url(#filter36_d_12_79)">
<path d="M109.605 203.027C109.393 203.079 109.213 203.2 109.105 203.365C108.998 203.53 108.971 203.724 109.032 203.906L109.397 205L111 204.611L110.635 203.516C110.574 203.335 110.432 203.182 110.239 203.09C110.046 202.998 109.818 202.976 109.605 203.027V203.027Z" fill="#2F2E41"/>
</g>
<g id="left-hand" filter="url(#filter37_d_12_79)">
<path id="Vector_41" d="M100.568 197.594C100.152 196.975 99.6031 196.455 98.9614 196.069C98.3196 195.683 97.6001 195.44 96.8535 195.359C96.107 195.278 95.3515 195.36 94.6404 195.599C93.9293 195.839 93.2799 196.229 92.7378 196.744L81.9862 192.078L77.5282 197.854L92.805 204.231C93.7385 205.076 94.9525 205.551 96.2168 205.569C97.4812 205.586 98.708 205.144 99.6649 204.326C100.622 203.508 101.242 202.371 101.409 201.13C101.575 199.889 101.276 198.631 100.568 197.594V197.594Z" fill="#FFB6B6"/>
<path id="Vector_42" d="M72.8713 200.842C67.5497 200.103 60.7875 196.014 53.0886 188.845C52.6585 188.452 52.3156 187.975 52.0815 187.444C51.8474 186.913 51.7273 186.34 51.7287 185.76C51.659 181.719 56.3133 176.915 56.7679 176.456L62.4428 165.892C62.5156 165.718 64.5187 161.084 68.0754 159.831C68.8233 159.574 69.6186 159.48 70.4067 159.556C71.1947 159.631 71.9569 159.875 72.6407 160.27C78.6298 163.422 71.2096 180.305 70.2062 182.515L78.016 187.573L82.8511 191.661L90.0167 193.425L86.7593 202.196L75.6799 200.907C74.7446 201 73.8012 200.978 72.8713 200.842Z" fill="#2F2E41"/>
</g>
<g id="head-actual" filter="url(#filter38_d_12_79)">
<path id="Vector_43" d="M83.3649 120.935C84.2618 113.525 79.0524 106.814 71.7294 105.945C64.4064 105.077 57.7427 110.38 56.8458 117.79C55.9488 125.2 61.1582 131.912 68.4812 132.78C75.8043 133.649 82.4679 128.345 83.3649 120.935Z" fill="#FFB6B6"/>
<path id="head" d="M35.3285 109.336C37.8972 107.001 39.3866 103.677 41.546 100.936C43.7054 98.1955 47.1609 95.9233 50.3901 97.0036C52.6161 97.7484 54.1394 99.9521 54.7636 102.282C55.3877 104.611 55.2583 107.083 55.1241 109.504C55.6663 104.561 59.5315 100.164 64.2485 99.126C68.9651 98.0876 74.1692 100.487 76.5333 104.79C77.9123 103.799 79.6108 103.343 81.307 103.508C83.0032 103.674 84.579 104.449 85.7359 105.688C88.0074 108.241 88.0519 112.591 85.8335 115.24C83.6152 117.889 79.4339 118.478 76.6533 116.533L75.4864 117.365C75.8301 119.484 74.3898 121.767 72.3677 122.31C70.7279 122.75 68.5325 122.384 67.7506 123.939C67.2041 125.026 67.8219 126.328 68.5296 127.297C69.237 128.265 70.0934 129.281 70.0449 130.499C69.972 132.338 67.9161 133.389 66.1411 133.568C61.8609 134 57.4675 131.541 55.506 127.615C55.4682 127.54 55.4263 127.463 55.3805 127.387C54.2392 125.521 53.4943 123.444 53.1912 121.284C52.888 119.123 53.0332 116.924 53.6176 114.821C53.8546 113.995 53.7942 113.353 53.2322 113.085C50.803 111.923 43.4862 112.889 41.1404 114.268C38.7943 115.647 36.8124 117.605 34.5327 119.099C32.2529 120.593 29.4537 121.622 26.8838 120.837C24.8255 120.208 23.2185 118.484 22.2352 116.517C21.252 114.551 20.8164 112.342 20.4515 110.156C24.7824 113.368 31.2852 113.01 35.3285 109.336Z" fill="#2F2E41"/>
</g>
<g id="Vector_44" filter="url(#filter39_d_12_79)">
<path d="M386.216 15H184.784C184.575 14.9944 184.375 14.8866 184.229 14.6997C184.082 14.5128 184 14.2616 184 14C184 13.7384 184.082 13.4872 184.229 13.3003C184.375 13.1134 184.575 13.0056 184.784 13H386.216C386.425 13.0056 386.625 13.1134 386.771 13.3003C386.918 13.4872 387 13.7384 387 14C387 14.2616 386.918 14.5128 386.771 14.6997C386.625 14.8866 386.425 14.9944 386.216 15V15Z" fill="#CACACA"/>
</g>
<g id="Vector_45" filter="url(#filter40_d_12_79)">
<path d="M198.5 9C200.985 9 203 6.98528 203 4.5C203 2.01472 200.985 0 198.5 0C196.015 0 194 2.01472 194 4.5C194 6.98528 196.015 9 198.5 9Z" fill="#3F3D56"/>
</g>
<g id="Vector_46" filter="url(#filter41_d_12_79)">
<path d="M215.5 9C217.985 9 220 6.98528 220 4.5C220 2.01472 217.985 0 215.5 0C213.015 0 211 2.01472 211 4.5C211 6.98528 213.015 9 215.5 9Z" fill="#3F3D56"/>
</g>
<g id="Vector_47" filter="url(#filter42_d_12_79)">
<path d="M231 9C233.761 9 236 6.98528 236 4.5C236 2.01472 233.761 0 231 0C228.239 0 226 2.01472 226 4.5C226 6.98528 228.239 9 231 9Z" fill="#3F3D56"/>
</g>
<g id="Vector_48" filter="url(#filter43_d_12_79)">
<path d="M377.095 1H364.905C364.663 1.00521 364.433 1.11286 364.264 1.29983C364.095 1.4868 364 1.73818 364 2C364 2.26182 364.095 2.5132 364.264 2.70017C364.433 2.88714 364.663 2.99479 364.905 3H377.095C377.337 2.99479 377.567 2.88714 377.736 2.70017C377.905 2.5132 378 2.26182 378 2C378 1.73818 377.905 1.4868 377.736 1.29983C377.567 1.11286 377.337 1.00521 377.095 1V1Z" fill="#3F3D56"/>
</g>
<g id="Vector_49" filter="url(#filter44_d_12_79)">
<path d="M377.095 4H364.905C364.663 4.00521 364.433 4.11286 364.264 4.29983C364.095 4.4868 364 4.73818 364 5C364 5.26182 364.095 5.5132 364.264 5.70017C364.433 5.88714 364.663 5.99479 364.905 6H377.095C377.337 5.99479 377.567 5.88714 377.736 5.70017C377.905 5.5132 378 5.26182 378 5C378 4.73818 377.905 4.4868 377.736 4.29983C377.567 4.11286 377.337 4.00521 377.095 4V4Z" fill="#3F3D56"/>
</g>
<g id="Vector_50" filter="url(#filter45_d_12_79)">
<path d="M-nan -nanL377.095 12H364.905C364.663 11.9922 364.433 11.8308 364.264 11.5503C364.095 11.2699 364 10.8928 364 10.5C364 10.1072 364.095 9.73013 364.264 9.44967C364.433 9.16921 364.663 9.00777 364.905 9H377.095C377.337 9.00777 377.567 9.16921 377.736 9.44967C377.905 9.73013 378 10.1072 378 10.5C378 10.8928 377.905 11.2699 377.736 11.5503C377.567 11.8308 377.337 11.9922 377.095 12L-nan -nanL-nan -nanZ" fill="#3F3D56"/>
</g>
<g id="list-right-1" filter="url(#filter46_d_12_79)">
<path id="Vector_51" d="M310.09 45.9073C313.296 45.9073 315.896 43.3346 315.896 40.161C315.896 36.9875 313.296 34.4148 310.09 34.4148C306.884 34.4148 304.285 36.9875 304.285 40.161C304.285 43.3346 306.884 45.9073 310.09 45.9073Z" fill="#E6E7E8"/>
<path id="Vector_52" d="M359.019 52.8852H306.014C305.787 52.8856 305.561 52.8416 305.351 52.7558C305.141 52.6699 304.95 52.544 304.79 52.385C304.629 52.2261 304.501 52.0374 304.414 51.8296C304.327 51.6218 304.282 51.3991 304.282 51.1741C304.282 50.9492 304.327 50.7265 304.414 50.5187C304.501 50.3109 304.629 50.1221 304.79 49.9632C304.95 49.8043 305.141 49.6783 305.351 49.5925C305.561 49.5066 305.787 49.4627 306.014 49.463H359.019C359.247 49.4627 359.472 49.5066 359.682 49.5925C359.892 49.6783 360.083 49.8043 360.243 49.9632C360.404 50.1221 360.532 50.3109 360.619 50.5187C360.706 50.7265 360.751 50.9492 360.751 51.1741C360.751 51.3991 360.706 51.6218 360.619 51.8296C360.532 52.0374 360.404 52.2261 360.243 52.385C360.083 52.544 359.892 52.6699 359.682 52.7558C359.472 52.8416 359.247 52.8856 359.019 52.8852V52.8852Z" fill="#E6E7E8"/>
<path id="Vector_53" d="M319.179 59.6468H306.014C305.555 59.6468 305.116 59.4665 304.791 59.1456C304.467 58.8247 304.285 58.3894 304.285 57.9356C304.285 57.4817 304.467 57.0465 304.791 56.7256C305.116 56.4047 305.555 56.2244 306.014 56.2244H319.179C319.637 56.2244 320.077 56.4047 320.401 56.7256C320.725 57.0465 320.908 57.4817 320.908 57.9356C320.908 58.3894 320.725 58.8247 320.401 59.1456C320.077 59.4665 319.637 59.6468 319.179 59.6468V59.6468Z" fill="#E6E7E8"/>
</g>
<g id="list-right-3" filter="url(#filter47_d_12_79)">
<path id="Vector_54" d="M310.09 135.597C313.296 135.597 315.896 133.025 315.896 129.851C315.896 126.677 313.296 124.105 310.09 124.105C306.884 124.105 304.285 126.677 304.285 129.851C304.285 133.025 306.884 135.597 310.09 135.597Z" fill="#E6E7E8"/>
<path id="Vector_55" d="M359.019 142.575H306.014C305.555 142.575 305.116 142.395 304.791 142.074C304.467 141.753 304.285 141.318 304.285 140.864C304.285 140.41 304.467 139.975 304.791 139.654C305.116 139.333 305.555 139.153 306.014 139.153H359.019C359.478 139.153 359.917 139.333 360.242 139.654C360.566 139.975 360.748 140.41 360.748 140.864C360.748 141.318 360.566 141.753 360.242 142.074C359.917 142.395 359.478 142.575 359.019 142.575V142.575Z" fill="#E6E7E8"/>
<path id="Vector_56" d="M319.179 149.337H306.014C305.555 149.337 305.116 149.156 304.791 148.836C304.467 148.515 304.285 148.079 304.285 147.626C304.285 147.172 304.467 146.736 304.791 146.415C305.116 146.095 305.555 145.914 306.014 145.914H319.179C319.637 145.914 320.077 146.095 320.401 146.415C320.725 146.736 320.908 147.172 320.908 147.626C320.908 148.079 320.725 148.515 320.401 148.836C320.077 149.156 319.637 149.337 319.179 149.337V149.337Z" fill="#E6E7E8"/>
</g>
<g id="list-left-1" filter="url(#filter48_d_12_79)">
<path id="Vector_57" d="M216.659 121.987C219.865 121.987 222.464 119.414 222.464 116.241C222.464 113.067 219.865 110.494 216.659 110.494C213.453 110.494 210.854 113.067 210.854 116.241C210.854 119.414 213.453 121.987 216.659 121.987Z" fill="#E6E7E8"/>
<path id="Vector_58" d="M265.588 128.965H212.582C212.124 128.965 211.684 128.784 211.36 128.464C211.036 128.143 210.854 127.707 210.854 127.254C210.854 126.8 211.036 126.365 211.36 126.044C211.684 125.723 212.124 125.542 212.582 125.542H265.588C266.046 125.542 266.486 125.723 266.81 126.044C267.135 126.365 267.317 126.8 267.317 127.254C267.317 127.707 267.135 128.143 266.81 128.464C266.486 128.784 266.046 128.965 265.588 128.965V128.965Z" fill="#E6E7E8"/>
<path id="Vector_59" d="M225.747 135.726H212.582C212.124 135.726 211.684 135.546 211.36 135.225C211.036 134.904 210.854 134.469 210.854 134.015C210.854 133.561 211.036 133.126 211.36 132.805C211.684 132.484 212.124 132.304 212.582 132.304H225.747C226.206 132.304 226.646 132.484 226.97 132.805C227.294 133.126 227.476 133.561 227.476 134.015C227.476 134.469 227.294 134.904 226.97 135.225C226.646 135.546 226.206 135.726 225.747 135.726V135.726Z" fill="#E6E7E8"/>
</g>
<g id="list-right-2" filter="url(#filter49_d_12_79)">
<path id="Vector_60" d="M310.09 87.3717C313.296 87.3717 315.896 84.799 315.896 81.6254C315.896 78.4518 313.296 75.8792 310.09 75.8792C306.884 75.8792 304.285 78.4518 304.285 81.6254C304.285 84.799 306.884 87.3717 310.09 87.3717Z" fill="#E6E7E8"/>
<path id="Vector_61" d="M359.019 94.3496H306.014C305.555 94.3496 305.116 94.1693 304.791 93.8484C304.467 93.5275 304.285 93.0923 304.285 92.6385C304.285 92.1847 304.467 91.7494 304.791 91.4285C305.116 91.1076 305.555 90.9274 306.014 90.9274H359.019C359.478 90.9274 359.917 91.1076 360.242 91.4285C360.566 91.7494 360.748 92.1847 360.748 92.6385C360.748 93.0923 360.566 93.5275 360.242 93.8484C359.917 94.1693 359.478 94.3496 359.019 94.3496V94.3496Z" fill="#E6E7E8"/>
<path id="Vector_62" d="M337.865 101.111H306.014C305.555 101.111 305.116 100.931 304.791 100.61C304.467 100.289 304.285 99.8536 304.285 99.3998C304.285 98.946 304.467 98.5107 304.791 98.1898C305.116 97.8689 305.555 97.6886 306.014 97.6886H337.865C338.324 97.6886 338.763 97.8689 339.087 98.1898C339.412 98.5107 339.594 98.946 339.594 99.3998C339.594 99.8536 339.412 100.289 339.087 100.61C338.763 100.931 338.324 101.111 337.865 101.111V101.111Z" fill="#E6E7E8"/>
<path id="Vector_63" d="M328.99 107.873H306.014C305.555 107.873 305.116 107.692 304.791 107.371C304.467 107.05 304.285 106.615 304.285 106.161C304.285 105.708 304.467 105.272 304.791 104.951C305.116 104.63 305.555 104.45 306.014 104.45H328.99C329.449 104.45 329.889 104.63 330.213 104.951C330.537 105.272 330.719 105.708 330.719 106.161C330.719 106.615 330.537 107.05 330.213 107.371C329.889 107.692 329.449 107.873 328.99 107.873V107.873Z" fill="#E6E7E8"/>
</g>
<g id="Vector_64" filter="url(#filter50_d_12_79)">
<path d="M257 44.581V104.423C257 104.841 256.832 105.241 256.533 105.537C256.234 105.832 255.83 105.999 255.407 106H223.506C219.977 102.765 217.081 98.9145 214.965 94.6415C214.826 94.3662 214.693 94.0887 214.567 93.807C212.638 89.6715 211.471 85.2294 211.12 80.6891C211.096 80.4095 211.076 80.132 211.063 79.8502C211.02 79.1297 211 78.3984 211 77.665C210.994 72.7832 211.926 67.9446 213.748 63.4072C213.857 63.1254 213.973 62.8458 214.092 62.5683C216.491 56.993 220.18 52.0514 224.862 48.1406C225.14 47.9061 225.422 47.6782 225.706 47.4566L225.771 47.4049C229.435 44.5381 233.974 42.9851 238.647 43.0001H255.407C255.83 43.0014 256.236 43.1686 256.534 43.465C256.833 43.7613 257 44.1627 257 44.581Z" fill="#2BA8FD" fill-opacity="0.79" shape-rendering="crispEdges"/>
</g>
<g id="Vector_65" opacity="0.2" filter="url(#filter51_d_12_79)">
<path d="M257 63.515V62.6717H242.78V43H241.933V62.6717H225.636V47.4801C225.351 47.7028 225.07 47.932 224.792 48.1677V62.6717H214.028C213.908 62.9506 213.793 63.2317 213.684 63.515H224.792V80.045H211C211.013 80.3282 211.033 80.6071 211.057 80.8882H224.792V94.0755H214.502C214.628 94.3587 214.761 94.6377 214.9 94.9144H224.792V106H225.636V94.9144H241.933V106H242.78V94.9144H257V94.0755H242.78C242.779 92.3436 243.122 90.6286 243.789 89.0285C244.455 87.4284 245.432 85.9746 246.664 84.7499C247.896 83.5253 249.359 82.554 250.968 81.8914C252.578 81.2288 254.303 80.8879 256.045 80.8882H257V80.045H242.78V63.515H257ZM241.933 94.0755H225.636V80.8882H241.933V94.0755ZM241.933 80.045H225.636V79.7142C225.636 77.5867 226.058 75.4801 226.877 73.5147C227.696 71.5492 228.896 69.7634 230.41 68.2591C231.923 66.7549 233.72 65.5617 235.697 64.7477C237.674 63.9337 239.793 63.5148 241.933 63.515V80.045Z" fill="black"/>
</g>
<g id="plant" filter="url(#filter52_d_12_79)">
<path d="M254.88 94.149C254.547 94.1647 254.217 94.0749 253.935 93.8915C253.654 93.7082 253.433 93.4403 253.305 93.1241C253.176 92.8079 253.145 92.4587 253.216 92.1238C253.287 91.7889 253.456 91.4845 253.701 91.2518C253.742 91.0843 253.772 90.964 253.813 90.7965C253.798 90.76 253.783 90.7236 253.768 90.6872C252.271 87.0177 242.719 97.2468 242.306 100.696C242.125 102.22 242.201 103.765 242.533 105.263C239.439 98.3242 237.832 90.7829 237.822 83.1501C237.821 81.2348 237.925 79.3209 238.132 77.4174C238.303 75.857 238.541 74.3076 238.845 72.7694C240.503 64.4231 244.064 56.6003 249.234 49.9433C252.191 50.113 254.783 49.6499 255.033 43.7587C255.077 42.7107 255.833 41.8033 256 40.771C255.718 40.8091 255.431 40.8328 255.149 40.8519C255.061 40.8566 254.968 40.8614 254.88 40.8661L254.847 40.8677C254.537 40.882 254.229 40.8038 253.961 40.6425C253.693 40.4813 253.476 40.2438 253.336 39.9587C253.196 39.6736 253.14 39.3531 253.173 39.0357C253.206 38.7182 253.328 38.4175 253.524 38.1696C253.646 38.0154 253.768 37.8613 253.89 37.7072C254.075 37.4693 254.265 37.2362 254.45 36.9984C254.471 36.9758 254.491 36.9519 254.51 36.927C254.723 36.6558 254.936 36.3894 255.149 36.1182C254.76 35.4982 254.237 34.9788 253.621 34.6006C251.488 33.3161 248.545 34.2057 247.004 36.1896C245.458 38.1734 245.166 40.9565 245.703 43.4351C246.231 45.5442 247.104 47.5455 248.286 49.3533C248.17 49.5056 248.049 49.6531 247.934 49.8053C245.819 52.601 243.976 55.6031 242.43 58.7684C242.868 55.2577 237.521 42.5795 235.454 39.894C232.971 36.6684 227.878 38.0761 227.441 42.1651C227.436 42.2047 227.432 42.2443 227.428 42.2838C227.735 42.4619 228.036 42.651 228.33 42.8509C228.699 43.1047 228.986 43.4673 229.151 43.8912C229.317 44.3152 229.354 44.7806 229.258 45.2266C229.162 45.6726 228.937 46.0784 228.613 46.3907C228.288 46.7031 227.88 46.9074 227.441 46.977L227.396 46.9842C223.285 53.0177 236.463 68.7216 239.761 65.1956C238.209 69.7185 237.235 74.4298 236.864 79.211C236.654 82.0317 236.667 84.8652 236.901 87.6839L236.887 87.584C236.154 81.4449 223.582 72.3173 219.91 73.0776C217.795 73.5156 215.712 73.416 216.033 75.6092C216.038 75.6442 216.043 75.6793 216.049 75.7143C216.618 75.9529 217.173 76.2277 217.71 76.5373C218.017 76.7154 218.318 76.9044 218.612 77.1044C218.981 77.3582 219.267 77.7208 219.433 78.1447C219.599 78.5686 219.636 79.0341 219.54 79.4801C219.444 79.9261 219.219 80.3318 218.894 80.6442C218.57 80.9565 218.162 81.1609 217.722 81.2305L217.677 81.2376C217.645 81.2424 217.617 81.2471 217.585 81.2519C215.714 87.8704 229.59 98.5518 238.026 95.1531H238.03C238.866 98.8877 240.078 102.523 241.645 106H254.556C254.602 105.853 254.644 105.7 254.686 105.553C253.491 105.63 252.291 105.557 251.113 105.334C252.071 104.126 253.029 102.908 253.987 101.699C254.008 101.677 254.028 101.653 254.047 101.628C254.533 101.009 255.024 100.396 255.509 99.7773L255.51 99.7766C255.536 97.8808 255.324 95.9895 254.88 94.1492L254.88 94.149ZM240.094 64.2489L240.101 64.2394L240.094 64.2584V64.2489ZM237.234 90.7524L237.123 90.4956C237.128 90.31 237.128 90.1245 237.123 89.9342C237.123 89.8818 237.114 89.8295 237.114 89.7772C237.156 90.1054 237.193 90.4337 237.239 90.762L237.234 90.7524Z" fill="#2F2E41"/>
</g>
</g>
<defs>
<filter id="filter0_d_12_79" x="7" y="169" width="48" height="76" filterUnits="userSpaceOnUse" color-interpolation-filters="sRGB">
<feFlood flood-opacity="0" result="BackgroundImageFix"/>
<feColorMatrix in="SourceAlpha" type="matrix" values="0 0 0 0 0 0 0 0 0 0 0 0 0 0 0 0 0 0 127 0" result="hardAlpha"/>
<feOffset dy="4"/>
<feGaussianBlur stdDeviation="2"/>
<feComposite in2="hardAlpha" operator="out"/>
<feColorMatrix type="matrix" values="0 0 0 0 0 0 0 0 0 0 0 0 0 0 0 0 0 0 0.25 0"/>
<feBlend mode="normal" in2="BackgroundImageFix" result="effect1_dropShadow_12_79"/>
<feBlend mode="normal" in="SourceGraphic" in2="effect1_dropShadow_12_79" result="shape"/>
</filter>
<filter id="filter1_d_12_79" x="50.8438" y="161.734" width="62.5451" height="42.2319" filterUnits="userSpaceOnUse" color-interpolation-filters="sRGB">
<feFlood flood-opacity="0" result="BackgroundImageFix"/>
<feColorMatrix in="SourceAlpha" type="matrix" values="0 0 0 0 0 0 0 0 0 0 0 0 0 0 0 0 0 0 127 0" result="hardAlpha"/>
<feOffset dy="4"/>
<feGaussianBlur stdDeviation="2"/>
<feComposite in2="hardAlpha" operator="out"/>
<feColorMatrix type="matrix" values="0 0 0 0 0 0 0 0 0 0 0 0 0 0 0 0 0 0 0.25 0"/>
<feBlend mode="normal" in2="BackgroundImageFix" result="effect1_dropShadow_12_79"/>
<feBlend mode="normal" in="SourceGraphic" in2="effect1_dropShadow_12_79" result="shape"/>
</filter>
<filter id="filter2_d_12_79" x="139" y="213" width="43" height="26" filterUnits="userSpaceOnUse" color-interpolation-filters="sRGB">
<feFlood flood-opacity="0" result="BackgroundImageFix"/>
<feColorMatrix in="SourceAlpha" type="matrix" values="0 0 0 0 0 0 0 0 0 0 0 0 0 0 0 0 0 0 127 0" result="hardAlpha"/>
<feOffset dy="4"/>
<feGaussianBlur stdDeviation="2"/>
<feComposite in2="hardAlpha" operator="out"/>
<feColorMatrix type="matrix" values="0 0 0 0 0 0 0 0 0 0 0 0 0 0 0 0 0 0 0.25 0"/>
<feBlend mode="normal" in2="BackgroundImageFix" result="effect1_dropShadow_12_79"/>
<feBlend mode="normal" in="SourceGraphic" in2="effect1_dropShadow_12_79" result="shape"/>
</filter>
<filter id="filter3_d_12_79" x="168" y="217" width="31" height="30" filterUnits="userSpaceOnUse" color-interpolation-filters="sRGB">
<feFlood flood-opacity="0" result="BackgroundImageFix"/>
<feColorMatrix in="SourceAlpha" type="matrix" values="0 0 0 0 0 0 0 0 0 0 0 0 0 0 0 0 0 0 127 0" result="hardAlpha"/>
<feOffset dy="4"/>
<feGaussianBlur stdDeviation="2"/>
<feComposite in2="hardAlpha" operator="out"/>
<feColorMatrix type="matrix" values="0 0 0 0 0 0 0 0 0 0 0 0 0 0 0 0 0 0 0.25 0"/>
<feBlend mode="normal" in2="BackgroundImageFix" result="effect1_dropShadow_12_79"/>
<feBlend mode="normal" in="SourceGraphic" in2="effect1_dropShadow_12_79" result="shape"/>
</filter>
<filter id="filter4_d_12_79" x="38" y="197" width="138" height="44" filterUnits="userSpaceOnUse" color-interpolation-filters="sRGB">
<feFlood flood-opacity="0" result="BackgroundImageFix"/>
<feColorMatrix in="SourceAlpha" type="matrix" values="0 0 0 0 0 0 0 0 0 0 0 0 0 0 0 0 0 0 127 0" result="hardAlpha"/>
<feOffset dy="4"/>
<feGaussianBlur stdDeviation="2"/>
<feComposite in2="hardAlpha" operator="out"/>
<feColorMatrix type="matrix" values="0 0 0 0 0 0 0 0 0 0 0 0 0 0 0 0 0 0 0.25 0"/>
<feBlend mode="normal" in2="BackgroundImageFix" result="effect1_dropShadow_12_79"/>
<feBlend mode="normal" in="SourceGraphic" in2="effect1_dropShadow_12_79" result="shape"/>
</filter>
<filter id="filter5_d_12_79" x="38.5634" y="211.675" width="110.443" height="99.3203" filterUnits="userSpaceOnUse" color-interpolation-filters="sRGB">
<feFlood flood-opacity="0" result="BackgroundImageFix"/>
<feColorMatrix in="SourceAlpha" type="matrix" values="0 0 0 0 0 0 0 0 0 0 0 0 0 0 0 0 0 0 127 0" result="hardAlpha"/>
<feOffset dy="4"/>
<feGaussianBlur stdDeviation="2"/>
<feComposite in2="hardAlpha" operator="out"/>
<feColorMatrix type="matrix" values="0 0 0 0 0 0 0 0 0 0 0 0 0 0 0 0 0 0 0.25 0"/>
<feBlend mode="normal" in2="BackgroundImageFix" result="effect1_dropShadow_12_79"/>
<feBlend mode="normal" in="SourceGraphic" in2="effect1_dropShadow_12_79" result="shape"/>
</filter>
<filter id="filter6_d_12_79" x="67" y="182" width="18" height="43" filterUnits="userSpaceOnUse" color-interpolation-filters="sRGB">
<feFlood flood-opacity="0" result="BackgroundImageFix"/>
<feColorMatrix in="SourceAlpha" type="matrix" values="0 0 0 0 0 0 0 0 0 0 0 0 0 0 0 0 0 0 127 0" result="hardAlpha"/>
<feOffset dy="4"/>
<feGaussianBlur stdDeviation="2"/>
<feComposite in2="hardAlpha" operator="out"/>
<feColorMatrix type="matrix" values="0 0 0 0 0 0 0 0 0 0 0 0 0 0 0 0 0 0 0.25 0"/>
<feBlend mode="normal" in2="BackgroundImageFix" result="effect1_dropShadow_12_79"/>
<feBlend mode="normal" in="SourceGraphic" in2="effect1_dropShadow_12_79" result="shape"/>
</filter>
<filter id="filter7_d_12_79" x="66" y="142" width="21" height="46" filterUnits="userSpaceOnUse" color-interpolation-filters="sRGB">
<feFlood flood-opacity="0" result="BackgroundImageFix"/>
<feColorMatrix in="SourceAlpha" type="matrix" values="0 0 0 0 0 0 0 0 0 0 0 0 0 0 0 0 0 0 127 0" result="hardAlpha"/>
<feOffset dy="4"/>
<feGaussianBlur stdDeviation="2"/>
<feComposite in2="hardAlpha" operator="out"/>
<feColorMatrix type="matrix" values="0 0 0 0 0 0 0 0 0 0 0 0 0 0 0 0 0 0 0.25 0"/>
<feBlend mode="normal" in2="BackgroundImageFix" result="effect1_dropShadow_12_79"/>
<feBlend mode="normal" in="SourceGraphic" in2="effect1_dropShadow_12_79" result="shape"/>
</filter>
<filter id="filter8_d_12_79" x="48" y="144" width="37" height="81" filterUnits="userSpaceOnUse" color-interpolation-filters="sRGB">
<feFlood flood-opacity="0" result="BackgroundImageFix"/>
<feColorMatrix in="SourceAlpha" type="matrix" values="0 0 0 0 0 0 0 0 0 0 0 0 0 0 0 0 0 0 127 0" result="hardAlpha"/>
<feOffset dy="4"/>
<feGaussianBlur stdDeviation="2"/>
<feComposite in2="hardAlpha" operator="out"/>
<feColorMatrix type="matrix" values="0 0 0 0 0 0 0 0 0 0 0 0 0 0 0 0 0 0 0.25 0"/>
<feBlend mode="normal" in2="BackgroundImageFix" result="effect1_dropShadow_12_79"/>
<feBlend mode="normal" in="SourceGraphic" in2="effect1_dropShadow_12_79" result="shape"/>
</filter>
<filter id="filter9_d_12_79" x="38" y="134" width="45" height="91" filterUnits="userSpaceOnUse" color-interpolation-filters="sRGB">
<feFlood flood-opacity="0" result="BackgroundImageFix"/>
<feColorMatrix in="SourceAlpha" type="matrix" values="0 0 0 0 0 0 0 0 0 0 0 0 0 0 0 0 0 0 127 0" result="hardAlpha"/>
<feOffset dy="4"/>
<feGaussianBlur stdDeviation="2"/>
<feComposite in2="hardAlpha" operator="out"/>
<feColorMatrix type="matrix" values="0 0 0 0 0 0 0 0 0 0 0 0 0 0 0 0 0 0 0.25 0"/>
<feBlend mode="normal" in2="BackgroundImageFix" result="effect1_dropShadow_12_79"/>
<feBlend mode="normal" in="SourceGraphic" in2="effect1_dropShadow_12_79" result="shape"/>
</filter>
<filter id="filter10_d_12_79" x="79" y="196" width="45" height="28" filterUnits="userSpaceOnUse" color-interpolation-filters="sRGB">
<feFlood flood-opacity="0" result="BackgroundImageFix"/>
<feColorMatrix in="SourceAlpha" type="matrix" values="0 0 0 0 0 0 0 0 0 0 0 0 0 0 0 0 0 0 127 0" result="hardAlpha"/>
<feOffset dy="4"/>
<feGaussianBlur stdDeviation="2"/>
<feComposite in2="hardAlpha" operator="out"/>
<feColorMatrix type="matrix" values="0 0 0 0 0 0 0 0 0 0 0 0 0 0 0 0 0 0 0.25 0"/>
<feBlend mode="normal" in2="BackgroundImageFix" result="effect1_dropShadow_12_79"/>
<feBlend mode="normal" in="SourceGraphic" in2="effect1_dropShadow_12_79" result="shape"/>
</filter>
<filter id="filter11_d_12_79" x="82" y="207" width="42" height="17" filterUnits="userSpaceOnUse" color-interpolation-filters="sRGB">
<feFlood flood-opacity="0" result="BackgroundImageFix"/>
<feColorMatrix in="SourceAlpha" type="matrix" values="0 0 0 0 0 0 0 0 0 0 0 0 0 0 0 0 0 0 127 0" result="hardAlpha"/>
<feOffset dy="4"/>
<feGaussianBlur stdDeviation="2"/>
<feComposite in2="hardAlpha" operator="out"/>
<feColorMatrix type="matrix" values="0 0 0 0 0 0 0 0 0 0 0 0 0 0 0 0 0 0 0.25 0"/>
<feBlend mode="normal" in2="BackgroundImageFix" result="effect1_dropShadow_12_79"/>
<feBlend mode="normal" in="SourceGraphic" in2="effect1_dropShadow_12_79" result="shape"/>
</filter>
<filter id="filter12_d_12_79" x="106" y="147" width="18" height="69" filterUnits="userSpaceOnUse" color-interpolation-filters="sRGB">
<feFlood flood-opacity="0" result="BackgroundImageFix"/>
<feColorMatrix in="SourceAlpha" type="matrix" values="0 0 0 0 0 0 0 0 0 0 0 0 0 0 0 0 0 0 127 0" result="hardAlpha"/>
<feOffset dy="4"/>
<feGaussianBlur stdDeviation="2"/>
<feComposite in2="hardAlpha" operator="out"/>
<feColorMatrix type="matrix" values="0 0 0 0 0 0 0 0 0 0 0 0 0 0 0 0 0 0 0.25 0"/>
<feBlend mode="normal" in2="BackgroundImageFix" result="effect1_dropShadow_12_79"/>
<feBlend mode="normal" in="SourceGraphic" in2="effect1_dropShadow_12_79" result="shape"/>
</filter>
<filter id="filter13_d_12_79" x="110" y="147" width="14" height="69" filterUnits="userSpaceOnUse" color-interpolation-filters="sRGB">
<feFlood flood-opacity="0" result="BackgroundImageFix"/>
<feColorMatrix in="SourceAlpha" type="matrix" values="0 0 0 0 0 0 0 0 0 0 0 0 0 0 0 0 0 0 127 0" result="hardAlpha"/>
<feOffset dy="4"/>
<feGaussianBlur stdDeviation="2"/>
<feComposite in2="hardAlpha" operator="out"/>
<feColorMatrix type="matrix" values="0 0 0 0 0 0 0 0 0 0 0 0 0 0 0 0 0 0 0.25 0"/>
<feBlend mode="normal" in2="BackgroundImageFix" result="effect1_dropShadow_12_79"/>
<feBlend mode="normal" in="SourceGraphic" in2="effect1_dropShadow_12_79" result="shape"/>
</filter>
<filter id="filter14_d_12_79" x="107" y="149" width="12" height="51" filterUnits="userSpaceOnUse" color-interpolation-filters="sRGB">
<feFlood flood-opacity="0" result="BackgroundImageFix"/>
<feColorMatrix in="SourceAlpha" type="matrix" values="0 0 0 0 0 0 0 0 0 0 0 0 0 0 0 0 0 0 127 0" result="hardAlpha"/>
<feOffset dy="4"/>
<feGaussianBlur stdDeviation="2"/>
<feComposite in2="hardAlpha" operator="out"/>
<feColorMatrix type="matrix" values="0 0 0 0 0 0 0 0 0 0 0 0 0 0 0 0 0 0 0.25 0"/>
<feBlend mode="normal" in2="BackgroundImageFix" result="effect1_dropShadow_12_79"/>
<feBlend mode="normal" in="SourceGraphic" in2="effect1_dropShadow_12_79" result="shape"/>
</filter>
<filter id="filter15_d_12_79" x="82" y="203" width="12" height="16" filterUnits="userSpaceOnUse" color-interpolation-filters="sRGB">
<feFlood flood-opacity="0" result="BackgroundImageFix"/>
<feColorMatrix in="SourceAlpha" type="matrix" values="0 0 0 0 0 0 0 0 0 0 0 0 0 0 0 0 0 0 127 0" result="hardAlpha"/>
<feOffset dy="4"/>
<feGaussianBlur stdDeviation="2"/>
<feComposite in2="hardAlpha" operator="out"/>
<feColorMatrix type="matrix" values="0 0 0 0 0 0 0 0 0 0 0 0 0 0 0 0 0 0 0.25 0"/>
<feBlend mode="normal" in2="BackgroundImageFix" result="effect1_dropShadow_12_79"/>
<feBlend mode="normal" in="SourceGraphic" in2="effect1_dropShadow_12_79" result="shape"/>
</filter>
<filter id="filter16_d_12_79" x="86" y="203" width="9" height="10" filterUnits="userSpaceOnUse" color-interpolation-filters="sRGB">
<feFlood flood-opacity="0" result="BackgroundImageFix"/>
<feColorMatrix in="SourceAlpha" type="matrix" values="0 0 0 0 0 0 0 0 0 0 0 0 0 0 0 0 0 0 127 0" result="hardAlpha"/>
<feOffset dy="4"/>
<feGaussianBlur stdDeviation="2"/>
<feComposite in2="hardAlpha" operator="out"/>
<feColorMatrix type="matrix" values="0 0 0 0 0 0 0 0 0 0 0 0 0 0 0 0 0 0 0.25 0"/>
<feBlend mode="normal" in2="BackgroundImageFix" result="effect1_dropShadow_12_79"/>
<feBlend mode="normal" in="SourceGraphic" in2="effect1_dropShadow_12_79" result="shape"/>
</filter>
<filter id="filter17_d_12_79" x="88" y="202" width="10" height="9" filterUnits="userSpaceOnUse" color-interpolation-filters="sRGB">
<feFlood flood-opacity="0" result="BackgroundImageFix"/>
<feColorMatrix in="SourceAlpha" type="matrix" values="0 0 0 0 0 0 0 0 0 0 0 0 0 0 0 0 0 0 127 0" result="hardAlpha"/>
<feOffset dy="4"/>
<feGaussianBlur stdDeviation="2"/>
<feComposite in2="hardAlpha" operator="out"/>
<feColorMatrix type="matrix" values="0 0 0 0 0 0 0 0 0 0 0 0 0 0 0 0 0 0 0.25 0"/>
<feBlend mode="normal" in2="BackgroundImageFix" result="effect1_dropShadow_12_79"/>
<feBlend mode="normal" in="SourceGraphic" in2="effect1_dropShadow_12_79" result="shape"/>
</filter>
<filter id="filter18_d_12_79" x="92" y="201" width="9" height="10" filterUnits="userSpaceOnUse" color-interpolation-filters="sRGB">
<feFlood flood-opacity="0" result="BackgroundImageFix"/>
<feColorMatrix in="SourceAlpha" type="matrix" values="0 0 0 0 0 0 0 0 0 0 0 0 0 0 0 0 0 0 127 0" result="hardAlpha"/>
<feOffset dy="4"/>
<feGaussianBlur stdDeviation="2"/>
<feComposite in2="hardAlpha" operator="out"/>
<feColorMatrix type="matrix" values="0 0 0 0 0 0 0 0 0 0 0 0 0 0 0 0 0 0 0.25 0"/>
<feBlend mode="normal" in2="BackgroundImageFix" result="effect1_dropShadow_12_79"/>
<feBlend mode="normal" in="SourceGraphic" in2="effect1_dropShadow_12_79" result="shape"/>
</filter>
<filter id="filter19_d_12_79" x="94" y="200" width="11" height="11" filterUnits="userSpaceOnUse" color-interpolation-filters="sRGB">
<feFlood flood-opacity="0" result="BackgroundImageFix"/>
<feColorMatrix in="SourceAlpha" type="matrix" values="0 0 0 0 0 0 0 0 0 0 0 0 0 0 0 0 0 0 127 0" result="hardAlpha"/>
<feOffset dy="4"/>
<feGaussianBlur stdDeviation="2"/>
<feComposite in2="hardAlpha" operator="out"/>
<feColorMatrix type="matrix" values="0 0 0 0 0 0 0 0 0 0 0 0 0 0 0 0 0 0 0.25 0"/>
<feBlend mode="normal" in2="BackgroundImageFix" result="effect1_dropShadow_12_79"/>
<feBlend mode="normal" in="SourceGraphic" in2="effect1_dropShadow_12_79" result="shape"/>
</filter>
<filter id="filter20_d_12_79" x="97" y="199" width="11" height="10" filterUnits="userSpaceOnUse" color-interpolation-filters="sRGB">
<feFlood flood-opacity="0" result="BackgroundImageFix"/>
<feColorMatrix in="SourceAlpha" type="matrix" values="0 0 0 0 0 0 0 0 0 0 0 0 0 0 0 0 0 0 127 0" result="hardAlpha"/>
<feOffset dy="4"/>
<feGaussianBlur stdDeviation="2"/>
<feComposite in2="hardAlpha" operator="out"/>
<feColorMatrix type="matrix" values="0 0 0 0 0 0 0 0 0 0 0 0 0 0 0 0 0 0 0.25 0"/>
<feBlend mode="normal" in2="BackgroundImageFix" result="effect1_dropShadow_12_79"/>
<feBlend mode="normal" in="SourceGraphic" in2="effect1_dropShadow_12_79" result="shape"/>
</filter>
<filter id="filter21_d_12_79" x="101" y="198" width="9" height="11" filterUnits="userSpaceOnUse" color-interpolation-filters="sRGB">
<feFlood flood-opacity="0" result="BackgroundImageFix"/>
<feColorMatrix in="SourceAlpha" type="matrix" values="0 0 0 0 0 0 0 0 0 0 0 0 0 0 0 0 0 0 127 0" result="hardAlpha"/>
<feOffset dy="4"/>
<feGaussianBlur stdDeviation="2"/>
<feComposite in2="hardAlpha" operator="out"/>
<feColorMatrix type="matrix" values="0 0 0 0 0 0 0 0 0 0 0 0 0 0 0 0 0 0 0.25 0"/>
<feBlend mode="normal" in2="BackgroundImageFix" result="effect1_dropShadow_12_79"/>
<feBlend mode="normal" in="SourceGraphic" in2="effect1_dropShadow_12_79" result="shape"/>
</filter>
<filter id="filter22_d_12_79" x="104" y="197" width="10" height="11" filterUnits="userSpaceOnUse" color-interpolation-filters="sRGB">
<feFlood flood-opacity="0" result="BackgroundImageFix"/>
<feColorMatrix in="SourceAlpha" type="matrix" values="0 0 0 0 0 0 0 0 0 0 0 0 0 0 0 0 0 0 127 0" result="hardAlpha"/>
<feOffset dy="4"/>
<feGaussianBlur stdDeviation="2"/>
<feComposite in2="hardAlpha" operator="out"/>
<feColorMatrix type="matrix" values="0 0 0 0 0 0 0 0 0 0 0 0 0 0 0 0 0 0 0.25 0"/>
<feBlend mode="normal" in2="BackgroundImageFix" result="effect1_dropShadow_12_79"/>
<feBlend mode="normal" in="SourceGraphic" in2="effect1_dropShadow_12_79" result="shape"/>
</filter>
<filter id="filter23_d_12_79" x="86" y="205" width="9" height="11" filterUnits="userSpaceOnUse" color-interpolation-filters="sRGB">
<feFlood flood-opacity="0" result="BackgroundImageFix"/>
<feColorMatrix in="SourceAlpha" type="matrix" values="0 0 0 0 0 0 0 0 0 0 0 0 0 0 0 0 0 0 127 0" result="hardAlpha"/>
<feOffset dy="4"/>
<feGaussianBlur stdDeviation="2"/>
<feComposite in2="hardAlpha" operator="out"/>
<feColorMatrix type="matrix" values="0 0 0 0 0 0 0 0 0 0 0 0 0 0 0 0 0 0 0.25 0"/>
<feBlend mode="normal" in2="BackgroundImageFix" result="effect1_dropShadow_12_79"/>
<feBlend mode="normal" in="SourceGraphic" in2="effect1_dropShadow_12_79" result="shape"/>
</filter>
<filter id="filter24_d_12_79" x="89" y="204" width="10" height="11" filterUnits="userSpaceOnUse" color-interpolation-filters="sRGB">
<feFlood flood-opacity="0" result="BackgroundImageFix"/>
<feColorMatrix in="SourceAlpha" type="matrix" values="0 0 0 0 0 0 0 0 0 0 0 0 0 0 0 0 0 0 127 0" result="hardAlpha"/>
<feOffset dy="4"/>
<feGaussianBlur stdDeviation="2"/>
<feComposite in2="hardAlpha" operator="out"/>
<feColorMatrix type="matrix" values="0 0 0 0 0 0 0 0 0 0 0 0 0 0 0 0 0 0 0.25 0"/>
<feBlend mode="normal" in2="BackgroundImageFix" result="effect1_dropShadow_12_79"/>
<feBlend mode="normal" in="SourceGraphic" in2="effect1_dropShadow_12_79" result="shape"/>
</filter>
<filter id="filter25_d_12_79" x="92" y="203" width="10" height="10" filterUnits="userSpaceOnUse" color-interpolation-filters="sRGB">
<feFlood flood-opacity="0" result="BackgroundImageFix"/>
<feColorMatrix in="SourceAlpha" type="matrix" values="0 0 0 0 0 0 0 0 0 0 0 0 0 0 0 0 0 0 127 0" result="hardAlpha"/>
<feOffset dy="4"/>
<feGaussianBlur stdDeviation="2"/>
<feComposite in2="hardAlpha" operator="out"/>
<feColorMatrix type="matrix" values="0 0 0 0 0 0 0 0 0 0 0 0 0 0 0 0 0 0 0.25 0"/>
<feBlend mode="normal" in2="BackgroundImageFix" result="effect1_dropShadow_12_79"/>
<feBlend mode="normal" in="SourceGraphic" in2="effect1_dropShadow_12_79" result="shape"/>
</filter>
<filter id="filter26_d_12_79" x="96" y="203" width="9" height="10" filterUnits="userSpaceOnUse" color-interpolation-filters="sRGB">
<feFlood flood-opacity="0" result="BackgroundImageFix"/>
<feColorMatrix in="SourceAlpha" type="matrix" values="0 0 0 0 0 0 0 0 0 0 0 0 0 0 0 0 0 0 127 0" result="hardAlpha"/>
<feOffset dy="4"/>
<feGaussianBlur stdDeviation="2"/>
<feComposite in2="hardAlpha" operator="out"/>
<feColorMatrix type="matrix" values="0 0 0 0 0 0 0 0 0 0 0 0 0 0 0 0 0 0 0.25 0"/>
<feBlend mode="normal" in2="BackgroundImageFix" result="effect1_dropShadow_12_79"/>
<feBlend mode="normal" in="SourceGraphic" in2="effect1_dropShadow_12_79" result="shape"/>
</filter>
<filter id="filter27_d_12_79" x="98" y="202" width="10" height="10" filterUnits="userSpaceOnUse" color-interpolation-filters="sRGB">
<feFlood flood-opacity="0" result="BackgroundImageFix"/>
<feColorMatrix in="SourceAlpha" type="matrix" values="0 0 0 0 0 0 0 0 0 0 0 0 0 0 0 0 0 0 127 0" result="hardAlpha"/>
<feOffset dy="4"/>
<feGaussianBlur stdDeviation="2"/>
<feComposite in2="hardAlpha" operator="out"/>
<feColorMatrix type="matrix" values="0 0 0 0 0 0 0 0 0 0 0 0 0 0 0 0 0 0 0.25 0"/>
<feBlend mode="normal" in2="BackgroundImageFix" result="effect1_dropShadow_12_79"/>
<feBlend mode="normal" in="SourceGraphic" in2="effect1_dropShadow_12_79" result="shape"/>
</filter>
<filter id="filter28_d_12_79" x="102" y="201" width="9" height="10" filterUnits="userSpaceOnUse" color-interpolation-filters="sRGB">
<feFlood flood-opacity="0" result="BackgroundImageFix"/>
<feColorMatrix in="SourceAlpha" type="matrix" values="0 0 0 0 0 0 0 0 0 0 0 0 0 0 0 0 0 0 127 0" result="hardAlpha"/>
<feOffset dy="4"/>
<feGaussianBlur stdDeviation="2"/>
<feComposite in2="hardAlpha" operator="out"/>
<feColorMatrix type="matrix" values="0 0 0 0 0 0 0 0 0 0 0 0 0 0 0 0 0 0 0.25 0"/>
<feBlend mode="normal" in2="BackgroundImageFix" result="effect1_dropShadow_12_79"/>
<feBlend mode="normal" in="SourceGraphic" in2="effect1_dropShadow_12_79" result="shape"/>
</filter>
<filter id="filter29_d_12_79" x="104" y="200" width="10" height="11" filterUnits="userSpaceOnUse" color-interpolation-filters="sRGB">
<feFlood flood-opacity="0" result="BackgroundImageFix"/>
<feColorMatrix in="SourceAlpha" type="matrix" values="0 0 0 0 0 0 0 0 0 0 0 0 0 0 0 0 0 0 127 0" result="hardAlpha"/>
<feOffset dy="4"/>
<feGaussianBlur stdDeviation="2"/>
<feComposite in2="hardAlpha" operator="out"/>
<feColorMatrix type="matrix" values="0 0 0 0 0 0 0 0 0 0 0 0 0 0 0 0 0 0 0.25 0"/>
<feBlend mode="normal" in2="BackgroundImageFix" result="effect1_dropShadow_12_79"/>
<feBlend mode="normal" in="SourceGraphic" in2="effect1_dropShadow_12_79" result="shape"/>
</filter>
<filter id="filter30_d_12_79" x="87" y="208" width="9" height="10" filterUnits="userSpaceOnUse" color-interpolation-filters="sRGB">
<feFlood flood-opacity="0" result="BackgroundImageFix"/>
<feColorMatrix in="SourceAlpha" type="matrix" values="0 0 0 0 0 0 0 0 0 0 0 0 0 0 0 0 0 0 127 0" result="hardAlpha"/>
<feOffset dy="4"/>
<feGaussianBlur stdDeviation="2"/>
<feComposite in2="hardAlpha" operator="out"/>
<feColorMatrix type="matrix" values="0 0 0 0 0 0 0 0 0 0 0 0 0 0 0 0 0 0 0.25 0"/>
<feBlend mode="normal" in2="BackgroundImageFix" result="effect1_dropShadow_12_79"/>
<feBlend mode="normal" in="SourceGraphic" in2="effect1_dropShadow_12_79" result="shape"/>
</filter>
<filter id="filter31_d_12_79" x="90" y="208" width="10" height="10" filterUnits="userSpaceOnUse" color-interpolation-filters="sRGB">
<feFlood flood-opacity="0" result="BackgroundImageFix"/>
<feColorMatrix in="SourceAlpha" type="matrix" values="0 0 0 0 0 0 0 0 0 0 0 0 0 0 0 0 0 0 127 0" result="hardAlpha"/>
<feOffset dy="4"/>
<feGaussianBlur stdDeviation="2"/>
<feComposite in2="hardAlpha" operator="out"/>
<feColorMatrix type="matrix" values="0 0 0 0 0 0 0 0 0 0 0 0 0 0 0 0 0 0 0.25 0"/>
<feBlend mode="normal" in2="BackgroundImageFix" result="effect1_dropShadow_12_79"/>
<feBlend mode="normal" in="SourceGraphic" in2="effect1_dropShadow_12_79" result="shape"/>
</filter>
<filter id="filter32_d_12_79" x="92" y="206" width="11" height="11" filterUnits="userSpaceOnUse" color-interpolation-filters="sRGB">
<feFlood flood-opacity="0" result="BackgroundImageFix"/>
<feColorMatrix in="SourceAlpha" type="matrix" values="0 0 0 0 0 0 0 0 0 0 0 0 0 0 0 0 0 0 127 0" result="hardAlpha"/>
<feOffset dy="4"/>
<feGaussianBlur stdDeviation="2"/>
<feComposite in2="hardAlpha" operator="out"/>
<feColorMatrix type="matrix" values="0 0 0 0 0 0 0 0 0 0 0 0 0 0 0 0 0 0 0.25 0"/>
<feBlend mode="normal" in2="BackgroundImageFix" result="effect1_dropShadow_12_79"/>
<feBlend mode="normal" in="SourceGraphic" in2="effect1_dropShadow_12_79" result="shape"/>
</filter>
<filter id="filter33_d_12_79" x="96" y="205" width="9" height="11" filterUnits="userSpaceOnUse" color-interpolation-filters="sRGB">
<feFlood flood-opacity="0" result="BackgroundImageFix"/>
<feColorMatrix in="SourceAlpha" type="matrix" values="0 0 0 0 0 0 0 0 0 0 0 0 0 0 0 0 0 0 127 0" result="hardAlpha"/>
<feOffset dy="4"/>
<feGaussianBlur stdDeviation="2"/>
<feComposite in2="hardAlpha" operator="out"/>
<feColorMatrix type="matrix" values="0 0 0 0 0 0 0 0 0 0 0 0 0 0 0 0 0 0 0.25 0"/>
<feBlend mode="normal" in2="BackgroundImageFix" result="effect1_dropShadow_12_79"/>
<feBlend mode="normal" in="SourceGraphic" in2="effect1_dropShadow_12_79" result="shape"/>
</filter>
<filter id="filter34_d_12_79" x="99" y="205" width="10" height="10" filterUnits="userSpaceOnUse" color-interpolation-filters="sRGB">
<feFlood flood-opacity="0" result="BackgroundImageFix"/>
<feColorMatrix in="SourceAlpha" type="matrix" values="0 0 0 0 0 0 0 0 0 0 0 0 0 0 0 0 0 0 127 0" result="hardAlpha"/>
<feOffset dy="4"/>
<feGaussianBlur stdDeviation="2"/>
<feComposite in2="hardAlpha" operator="out"/>
<feColorMatrix type="matrix" values="0 0 0 0 0 0 0 0 0 0 0 0 0 0 0 0 0 0 0.25 0"/>
<feBlend mode="normal" in2="BackgroundImageFix" result="effect1_dropShadow_12_79"/>
<feBlend mode="normal" in="SourceGraphic" in2="effect1_dropShadow_12_79" result="shape"/>
</filter>
<filter id="filter35_d_12_79" x="102" y="203" width="10" height="11" filterUnits="userSpaceOnUse" color-interpolation-filters="sRGB">
<feFlood flood-opacity="0" result="BackgroundImageFix"/>
<feColorMatrix in="SourceAlpha" type="matrix" values="0 0 0 0 0 0 0 0 0 0 0 0 0 0 0 0 0 0 127 0" result="hardAlpha"/>
<feOffset dy="4"/>
<feGaussianBlur stdDeviation="2"/>
<feComposite in2="hardAlpha" operator="out"/>
<feColorMatrix type="matrix" values="0 0 0 0 0 0 0 0 0 0 0 0 0 0 0 0 0 0 0.25 0"/>
<feBlend mode="normal" in2="BackgroundImageFix" result="effect1_dropShadow_12_79"/>
<feBlend mode="normal" in="SourceGraphic" in2="effect1_dropShadow_12_79" result="shape"/>
</filter>
<filter id="filter36_d_12_79" x="105" y="203" width="10" height="10" filterUnits="userSpaceOnUse" color-interpolation-filters="sRGB">
<feFlood flood-opacity="0" result="BackgroundImageFix"/>
<feColorMatrix in="SourceAlpha" type="matrix" values="0 0 0 0 0 0 0 0 0 0 0 0 0 0 0 0 0 0 127 0" result="hardAlpha"/>
<feOffset dy="4"/>
<feGaussianBlur stdDeviation="2"/>
<feComposite in2="hardAlpha" operator="out"/>
<feColorMatrix type="matrix" values="0 0 0 0 0 0 0 0 0 0 0 0 0 0 0 0 0 0 0.25 0"/>
<feBlend mode="normal" in2="BackgroundImageFix" result="effect1_dropShadow_12_79"/>
<feBlend mode="normal" in="SourceGraphic" in2="effect1_dropShadow_12_79" result="shape"/>
</filter>
<filter id="filter37_d_12_79" x="47.7279" y="159.53" width="57.7258" height="54.0393" filterUnits="userSpaceOnUse" color-interpolation-filters="sRGB">
<feFlood flood-opacity="0" result="BackgroundImageFix"/>
<feColorMatrix in="SourceAlpha" type="matrix" values="0 0 0 0 0 0 0 0 0 0 0 0 0 0 0 0 0 0 127 0" result="hardAlpha"/>
<feOffset dy="4"/>
<feGaussianBlur stdDeviation="2"/>
<feComposite in2="hardAlpha" operator="out"/>
<feColorMatrix type="matrix" values="0 0 0 0 0 0 0 0 0 0 0 0 0 0 0 0 0 0 0.25 0"/>
<feBlend mode="normal" in2="BackgroundImageFix" result="effect1_dropShadow_12_79"/>
<feBlend mode="normal" in="SourceGraphic" in2="effect1_dropShadow_12_79" result="shape"/>
</filter>
<filter id="filter38_d_12_79" x="16.4515" y="96.729" width="75.0173" height="44.8879" filterUnits="userSpaceOnUse" color-interpolation-filters="sRGB">
<feFlood flood-opacity="0" result="BackgroundImageFix"/>
<feColorMatrix in="SourceAlpha" type="matrix" values="0 0 0 0 0 0 0 0 0 0 0 0 0 0 0 0 0 0 127 0" result="hardAlpha"/>
<feOffset dy="4"/>
<feGaussianBlur stdDeviation="2"/>
<feComposite in2="hardAlpha" operator="out"/>
<feColorMatrix type="matrix" values="0 0 0 0 0 0 0 0 0 0 0 0 0 0 0 0 0 0 0.25 0"/>
<feBlend mode="normal" in2="BackgroundImageFix" result="effect1_dropShadow_12_79"/>
<feBlend mode="normal" in="SourceGraphic" in2="effect1_dropShadow_12_79" result="shape"/>
</filter>
<filter id="filter39_d_12_79" x="180" y="13" width="211" height="10" filterUnits="userSpaceOnUse" color-interpolation-filters="sRGB">
<feFlood flood-opacity="0" result="BackgroundImageFix"/>
<feColorMatrix in="SourceAlpha" type="matrix" values="0 0 0 0 0 0 0 0 0 0 0 0 0 0 0 0 0 0 127 0" result="hardAlpha"/>
<feOffset dy="4"/>
<feGaussianBlur stdDeviation="2"/>
<feComposite in2="hardAlpha" operator="out"/>
<feColorMatrix type="matrix" values="0 0 0 0 0 0 0 0 0 0 0 0 0 0 0 0 0 0 0.25 0"/>
<feBlend mode="normal" in2="BackgroundImageFix" result="effect1_dropShadow_12_79"/>
<feBlend mode="normal" in="SourceGraphic" in2="effect1_dropShadow_12_79" result="shape"/>
</filter>
<filter id="filter40_d_12_79" x="190" y="0" width="17" height="17" filterUnits="userSpaceOnUse" color-interpolation-filters="sRGB">
<feFlood flood-opacity="0" result="BackgroundImageFix"/>
<feColorMatrix in="SourceAlpha" type="matrix" values="0 0 0 0 0 0 0 0 0 0 0 0 0 0 0 0 0 0 127 0" result="hardAlpha"/>
<feOffset dy="4"/>
<feGaussianBlur stdDeviation="2"/>
<feComposite in2="hardAlpha" operator="out"/>
<feColorMatrix type="matrix" values="0 0 0 0 0 0 0 0 0 0 0 0 0 0 0 0 0 0 0.25 0"/>
<feBlend mode="normal" in2="BackgroundImageFix" result="effect1_dropShadow_12_79"/>
<feBlend mode="normal" in="SourceGraphic" in2="effect1_dropShadow_12_79" result="shape"/>
</filter>
<filter id="filter41_d_12_79" x="207" y="0" width="17" height="17" filterUnits="userSpaceOnUse" color-interpolation-filters="sRGB">
<feFlood flood-opacity="0" result="BackgroundImageFix"/>
<feColorMatrix in="SourceAlpha" type="matrix" values="0 0 0 0 0 0 0 0 0 0 0 0 0 0 0 0 0 0 127 0" result="hardAlpha"/>
<feOffset dy="4"/>
<feGaussianBlur stdDeviation="2"/>
<feComposite in2="hardAlpha" operator="out"/>
<feColorMatrix type="matrix" values="0 0 0 0 0 0 0 0 0 0 0 0 0 0 0 0 0 0 0.25 0"/>
<feBlend mode="normal" in2="BackgroundImageFix" result="effect1_dropShadow_12_79"/>
<feBlend mode="normal" in="SourceGraphic" in2="effect1_dropShadow_12_79" result="shape"/>
</filter>
<filter id="filter42_d_12_79" x="222" y="0" width="18" height="17" filterUnits="userSpaceOnUse" color-interpolation-filters="sRGB">
<feFlood flood-opacity="0" result="BackgroundImageFix"/>
<feColorMatrix in="SourceAlpha" type="matrix" values="0 0 0 0 0 0 0 0 0 0 0 0 0 0 0 0 0 0 127 0" result="hardAlpha"/>
<feOffset dy="4"/>
<feGaussianBlur stdDeviation="2"/>
<feComposite in2="hardAlpha" operator="out"/>
<feColorMatrix type="matrix" values="0 0 0 0 0 0 0 0 0 0 0 0 0 0 0 0 0 0 0.25 0"/>
<feBlend mode="normal" in2="BackgroundImageFix" result="effect1_dropShadow_12_79"/>
<feBlend mode="normal" in="SourceGraphic" in2="effect1_dropShadow_12_79" result="shape"/>
</filter>
<filter id="filter43_d_12_79" x="360" y="1" width="22" height="10" filterUnits="userSpaceOnUse" color-interpolation-filters="sRGB">
<feFlood flood-opacity="0" result="BackgroundImageFix"/>
<feColorMatrix in="SourceAlpha" type="matrix" values="0 0 0 0 0 0 0 0 0 0 0 0 0 0 0 0 0 0 127 0" result="hardAlpha"/>
<feOffset dy="4"/>
<feGaussianBlur stdDeviation="2"/>
<feComposite in2="hardAlpha" operator="out"/>
<feColorMatrix type="matrix" values="0 0 0 0 0 0 0 0 0 0 0 0 0 0 0 0 0 0 0.25 0"/>
<feBlend mode="normal" in2="BackgroundImageFix" result="effect1_dropShadow_12_79"/>
<feBlend mode="normal" in="SourceGraphic" in2="effect1_dropShadow_12_79" result="shape"/>
</filter>
<filter id="filter44_d_12_79" x="360" y="4" width="22" height="10" filterUnits="userSpaceOnUse" color-interpolation-filters="sRGB">
<feFlood flood-opacity="0" result="BackgroundImageFix"/>
<feColorMatrix in="SourceAlpha" type="matrix" values="0 0 0 0 0 0 0 0 0 0 0 0 0 0 0 0 0 0 127 0" result="hardAlpha"/>
<feOffset dy="4"/>
<feGaussianBlur stdDeviation="2"/>
<feComposite in2="hardAlpha" operator="out"/>
<feColorMatrix type="matrix" values="0 0 0 0 0 0 0 0 0 0 0 0 0 0 0 0 0 0 0.25 0"/>
<feBlend mode="normal" in2="BackgroundImageFix" result="effect1_dropShadow_12_79"/>
<feBlend mode="normal" in="SourceGraphic" in2="effect1_dropShadow_12_79" result="shape"/>
</filter>
<filter id="filter45_d_12_79" x="360" y="9" width="22" height="11" filterUnits="userSpaceOnUse" color-interpolation-filters="sRGB">
<feFlood flood-opacity="0" result="BackgroundImageFix"/>
<feColorMatrix in="SourceAlpha" type="matrix" values="0 0 0 0 0 0 0 0 0 0 0 0 0 0 0 0 0 0 127 0" result="hardAlpha"/>
<feOffset dy="4"/>
<feGaussianBlur stdDeviation="2"/>
<feComposite in2="hardAlpha" operator="out"/>
<feColorMatrix type="matrix" values="0 0 0 0 0 0 0 0 0 0 0 0 0 0 0 0 0 0 0.25 0"/>
<feBlend mode="normal" in2="BackgroundImageFix" result="effect1_dropShadow_12_79"/>
<feBlend mode="normal" in="SourceGraphic" in2="effect1_dropShadow_12_79" result="shape"/>
</filter>
<filter id="filter46_d_12_79" x="300.282" y="34.4148" width="64.4684" height="33.2319" filterUnits="userSpaceOnUse" color-interpolation-filters="sRGB">
<feFlood flood-opacity="0" result="BackgroundImageFix"/>
<feColorMatrix in="SourceAlpha" type="matrix" values="0 0 0 0 0 0 0 0 0 0 0 0 0 0 0 0 0 0 127 0" result="hardAlpha"/>
<feOffset dy="4"/>
<feGaussianBlur stdDeviation="2"/>
<feComposite in2="hardAlpha" operator="out"/>
<feColorMatrix type="matrix" values="0 0 0 0 0 0 0 0 0 0 0 0 0 0 0 0 0 0 0.25 0"/>
<feBlend mode="normal" in2="BackgroundImageFix" result="effect1_dropShadow_12_79"/>
<feBlend mode="normal" in="SourceGraphic" in2="effect1_dropShadow_12_79" result="shape"/>
</filter>
<filter id="filter47_d_12_79" x="300.285" y="124.105" width="64.4629" height="33.2319" filterUnits="userSpaceOnUse" color-interpolation-filters="sRGB">
<feFlood flood-opacity="0" result="BackgroundImageFix"/>
<feColorMatrix in="SourceAlpha" type="matrix" values="0 0 0 0 0 0 0 0 0 0 0 0 0 0 0 0 0 0 127 0" result="hardAlpha"/>
<feOffset dy="4"/>
<feGaussianBlur stdDeviation="2"/>
<feComposite in2="hardAlpha" operator="out"/>
<feColorMatrix type="matrix" values="0 0 0 0 0 0 0 0 0 0 0 0 0 0 0 0 0 0 0.25 0"/>
<feBlend mode="normal" in2="BackgroundImageFix" result="effect1_dropShadow_12_79"/>
<feBlend mode="normal" in="SourceGraphic" in2="effect1_dropShadow_12_79" result="shape"/>
</filter>
<filter id="filter48_d_12_79" x="206.854" y="110.494" width="64.463" height="33.2319" filterUnits="userSpaceOnUse" color-interpolation-filters="sRGB">
<feFlood flood-opacity="0" result="BackgroundImageFix"/>
<feColorMatrix in="SourceAlpha" type="matrix" values="0 0 0 0 0 0 0 0 0 0 0 0 0 0 0 0 0 0 127 0" result="hardAlpha"/>
<feOffset dy="4"/>
<feGaussianBlur stdDeviation="2"/>
<feComposite in2="hardAlpha" operator="out"/>
<feColorMatrix type="matrix" values="0 0 0 0 0 0 0 0 0 0 0 0 0 0 0 0 0 0 0.25 0"/>
<feBlend mode="normal" in2="BackgroundImageFix" result="effect1_dropShadow_12_79"/>
<feBlend mode="normal" in="SourceGraphic" in2="effect1_dropShadow_12_79" result="shape"/>
</filter>
<filter id="filter49_d_12_79" x="300.285" y="75.8792" width="64.4629" height="39.9934" filterUnits="userSpaceOnUse" color-interpolation-filters="sRGB">
<feFlood flood-opacity="0" result="BackgroundImageFix"/>
<feColorMatrix in="SourceAlpha" type="matrix" values="0 0 0 0 0 0 0 0 0 0 0 0 0 0 0 0 0 0 127 0" result="hardAlpha"/>
<feOffset dy="4"/>
<feGaussianBlur stdDeviation="2"/>
<feComposite in2="hardAlpha" operator="out"/>
<feColorMatrix type="matrix" values="0 0 0 0 0 0 0 0 0 0 0 0 0 0 0 0 0 0 0.25 0"/>
<feBlend mode="normal" in2="BackgroundImageFix" result="effect1_dropShadow_12_79"/>
<feBlend mode="normal" in="SourceGraphic" in2="effect1_dropShadow_12_79" result="shape"/>
</filter>
<filter id="filter50_d_12_79" x="207" y="43" width="54" height="71" filterUnits="userSpaceOnUse" color-interpolation-filters="sRGB">
<feFlood flood-opacity="0" result="BackgroundImageFix"/>
<feColorMatrix in="SourceAlpha" type="matrix" values="0 0 0 0 0 0 0 0 0 0 0 0 0 0 0 0 0 0 127 0" result="hardAlpha"/>
<feOffset dy="4"/>
<feGaussianBlur stdDeviation="2"/>
<feComposite in2="hardAlpha" operator="out"/>
<feColorMatrix type="matrix" values="0 0 0 0 0 0 0 0 0 0 0 0 0 0 0 0 0 0 0.25 0"/>
<feBlend mode="normal" in2="BackgroundImageFix" result="effect1_dropShadow_12_79"/>
<feBlend mode="normal" in="SourceGraphic" in2="effect1_dropShadow_12_79" result="shape"/>
</filter>
<filter id="filter51_d_12_79" x="207" y="43" width="54" height="71" filterUnits="userSpaceOnUse" color-interpolation-filters="sRGB">
<feFlood flood-opacity="0" result="BackgroundImageFix"/>
<feColorMatrix in="SourceAlpha" type="matrix" values="0 0 0 0 0 0 0 0 0 0 0 0 0 0 0 0 0 0 127 0" result="hardAlpha"/>
<feOffset dy="4"/>
<feGaussianBlur stdDeviation="2"/>
<feComposite in2="hardAlpha" operator="out"/>
<feColorMatrix type="matrix" values="0 0 0 0 0 0 0 0 0 0 0 0 0 0 0 0 0 0 0.25 0"/>
<feBlend mode="normal" in2="BackgroundImageFix" result="effect1_dropShadow_12_79"/>
<feBlend mode="normal" in="SourceGraphic" in2="effect1_dropShadow_12_79" result="shape"/>
</filter>
<filter id="filter52_d_12_79" x="212" y="34" width="48" height="80" filterUnits="userSpaceOnUse" color-interpolation-filters="sRGB">
<feFlood flood-opacity="0" result="BackgroundImageFix"/>
<feColorMatrix in="SourceAlpha" type="matrix" values="0 0 0 0 0 0 0 0 0 0 0 0 0 0 0 0 0 0 127 0" result="hardAlpha"/>
<feOffset dy="4"/>
<feGaussianBlur stdDeviation="2"/>
<feComposite in2="hardAlpha" operator="out"/>
<feColorMatrix type="matrix" values="0 0 0 0 0 0 0 0 0 0 0 0 0 0 0 0 0 0 0.25 0"/>
<feBlend mode="normal" in2="BackgroundImageFix" result="effect1_dropShadow_12_79"/>
<feBlend mode="normal" in="SourceGraphic" in2="effect1_dropShadow_12_79" result="shape"/>
</filter>
</defs>
</svg>
